<svg xmlns="http://www.w3.org/2000/svg" width="62" height="62" viewBox="0 0 62 62" fill="none">
  <path d="M36.7505 5.15869H3.89264V61.0003H36.7505V5.15869Z" stroke="#5663DA" stroke-width="2" stroke-linecap="round" stroke-linejoin="round"/>
  <path d="M57.8715 20.4517H36.7503V61.0002H57.8715V20.4517Z" stroke="#5663DA" stroke-width="2" stroke-linecap="round" stroke-linejoin="round"/>
  <path d="M12.6203 11.3079H8.68668V15.2415H12.6203V11.3079Z" stroke="#5663DA" stroke-width="2" stroke-linecap="round" stroke-linejoin="round"/>
  <path d="M22.2945 11.3079H18.3608V15.2415H22.2945V11.3079Z" stroke="#5663DA" stroke-width="2" stroke-linecap="round" stroke-linejoin="round"/>
  <path d="M31.9592 11.3079H28.0256V15.2415H31.9592V11.3079Z" stroke="#5663DA" stroke-width="2" stroke-linecap="round" stroke-linejoin="round"/>
  <path d="M44.8992 25.2925H40.9655V29.2261H44.8992V25.2925Z" stroke="#5663DA" stroke-width="2" stroke-linecap="round" stroke-linejoin="round"/>
  <path d="M53.6577 25.2925H49.724V29.2261H53.6577V25.2925Z" stroke="#5663DA" stroke-width="2" stroke-linecap="round" stroke-linejoin="round"/>
  <path d="M44.8992 33.8181H40.9655V37.7518H44.8992V33.8181Z" stroke="#5663DA" stroke-width="2" stroke-linecap="round" stroke-linejoin="round"/>
  <path d="M53.6577 33.8181H49.724V37.7518H53.6577V33.8181Z" stroke="#5663DA" stroke-width="2" stroke-linecap="round" stroke-linejoin="round"/>
  <path d="M44.8992 42.3436H40.9655V46.2773H44.8992V42.3436Z" stroke="#5663DA" stroke-width="2" stroke-linecap="round" stroke-linejoin="round"/>
  <path d="M53.6577 42.3436H49.724V46.2773H53.6577V42.3436Z" stroke="#5663DA" stroke-width="2" stroke-linecap="round" stroke-linejoin="round"/>
  <path d="M12.6203 21.3589H8.68668V25.2925H12.6203V21.3589Z" stroke="#5663DA" stroke-width="2" stroke-linecap="round" stroke-linejoin="round"/>
  <path d="M22.2945 21.3589H18.3608V25.2925H22.2945V21.3589Z" stroke="#5663DA" stroke-width="2" stroke-linecap="round" stroke-linejoin="round"/>
  <path d="M31.9592 21.3589H28.0256V25.2925H31.9592V21.3589Z" stroke="#5663DA" stroke-width="2" stroke-linecap="round" stroke-linejoin="round"/>
  <path d="M12.6203 31.4177H8.68668V35.3514H12.6203V31.4177Z" stroke="#5663DA" stroke-width="2" stroke-linecap="round" stroke-linejoin="round"/>
  <path d="M22.2945 31.4177H18.3608V35.3514H22.2945V31.4177Z" stroke="#5663DA" stroke-width="2" stroke-linecap="round" stroke-linejoin="round"/>
  <path d="M31.9592 31.4177H28.0256V35.3514H31.9592V31.4177Z" stroke="#5663DA" stroke-width="2" stroke-linecap="round" stroke-linejoin="round"/>
  <path d="M12.6203 41.4686H8.68668V45.4023H12.6203V41.4686Z" stroke="#5663DA" stroke-width="2" stroke-linecap="round" stroke-linejoin="round"/>
  <path d="M22.2945 41.4686H18.3608V45.4023H22.2945V41.4686Z" stroke="#5663DA" stroke-width="2" stroke-linecap="round" stroke-linejoin="round"/>
  <path d="M31.9592 41.4686H28.0256V45.4023H31.9592V41.4686Z" stroke="#5663DA" stroke-width="2" stroke-linecap="round" stroke-linejoin="round"/>
  <path d="M12.6203 51.5194H8.68668V55.453H12.6203V51.5194Z" stroke="#5663DA" stroke-width="2" stroke-linecap="round" stroke-linejoin="round"/>
  <path d="M22.2945 51.5194H18.3608V55.453H22.2945V51.5194Z" stroke="#5663DA" stroke-width="2" stroke-linecap="round" stroke-linejoin="round"/>
  <path d="M31.9592 51.5194H28.0256V55.453H31.9592V51.5194Z" stroke="#5663DA" stroke-width="2" stroke-linecap="round" stroke-linejoin="round"/>
  <path d="M53.1749 52.1857H41.4463V61.0002H53.1749V52.1857Z" stroke="#5663DA" stroke-width="2" stroke-linecap="round" stroke-linejoin="round"/>
  <path d="M47.315 52.1857V61.0002" stroke="#5663DA" stroke-width="2" stroke-linecap="round" stroke-linejoin="round"/>
  <path d="M15.742 1.00024H8.1637V5.18274H15.742V1.00024Z" stroke="#5663DA" stroke-width="2" stroke-linecap="round" stroke-linejoin="round"/>
  <path d="M1.00073 61.0002H60.7599" stroke="#5663DA" stroke-width="2" stroke-linecap="round" stroke-linejoin="round"/>
</svg>