<svg xmlns="http://www.w3.org/2000/svg" width="161" height="46" viewBox="0 0 161 46" fill="none">
  <rect width="45.5705" height="5.33286" rx="2.66643" transform="matrix(1.25114e-07 -1 -1 -1.52715e-08 5.33273 45.5703)" fill="#E9EDF7"/>
  <rect width="10.8668" height="5.33286" rx="2.66643" transform="matrix(1.25115e-07 -1 -1 -1.52714e-08 5.33274 45.5703)" fill="#5663DA"/>
  <rect width="45.5705" height="5.33281" rx="2.66641" transform="matrix(1.25114e-07 -1 -1 -1.52716e-08 19.8523 45.5703)" fill="#E9EDF7"/>
  <rect width="41.364" height="5.33287" rx="2.66643" transform="matrix(1.25115e-07 -1 -1 -1.52714e-08 19.8523 45.5703)" fill="#5663DA"/>
  <rect width="45.5705" height="5.33286" rx="2.66643" transform="matrix(1.25115e-07 -1 -1 -1.52714e-08 34.3698 45.5703)" fill="#E9EDF7"/>
  <rect width="31.5488" height="5.33287" rx="2.66643" transform="matrix(1.25115e-07 -1 -1 -1.52714e-08 34.3699 45.5703)" fill="#5663DA"/>
  <rect width="45.5705" height="5.33287" rx="2.66644" transform="matrix(1.25115e-07 -1 -1 -1.52714e-08 48.8874 45.5703)" fill="#E9EDF7"/>
  <rect width="23.4863" height="5.33287" rx="2.66643" transform="matrix(1.25115e-07 -1 -1 -1.52715e-08 48.8874 45.5703)" fill="#5663DA"/>
  <rect width="45.5705" height="5.33287" rx="2.66644" transform="matrix(1.25115e-07 -1 -1 -1.52714e-08 63.407 45.5703)" fill="#E9EDF7"/>
  <rect width="37.508" height="5.33288" rx="2.66644" transform="matrix(1.25115e-07 -1 -1 -1.52714e-08 63.407 45.5703)" fill="#5663DA"/>
  <rect width="45.5705" height="5.33287" rx="2.66644" transform="matrix(1.25115e-07 -1 -1 -1.52714e-08 79.407 45.5703)" fill="#E9EDF7"/>
  <rect width="37.508" height="5.33288" rx="2.66644" transform="matrix(1.25115e-07 -1 -1 -1.52714e-08 79.407 45.5703)" fill="#5663DA"/>
  <rect width="45.5705" height="5.33287" rx="2.66644" transform="matrix(1.25115e-07 -1 -1 -1.52714e-08 95.8874 45.5703)" fill="#E9EDF7"/>
  <rect width="23.4863" height="5.33287" rx="2.66643" transform="matrix(1.25115e-07 -1 -1 -1.52715e-08 95.8874 45.5703)" fill="#5663DA"/>
  <rect width="45.5705" height="5.33287" rx="2.66644" transform="matrix(1.25115e-07 -1 -1 -1.52714e-08 110.407 45.5703)" fill="#E9EDF7"/>
  <rect width="37.508" height="5.33288" rx="2.66644" transform="matrix(1.25115e-07 -1 -1 -1.52714e-08 110.407 45.5703)" fill="#5663DA"/>
  <rect width="45.5705" height="5.33287" rx="2.66644" transform="matrix(1.25115e-07 -1 -1 -1.52714e-08 126.407 45.5703)" fill="#E9EDF7"/>
  <rect width="37.508" height="5.33288" rx="2.66644" transform="matrix(1.25115e-07 -1 -1 -1.52714e-08 126.407 45.5703)" fill="#5663DA"/>
  <rect width="45.5705" height="5.33287" rx="2.66644" transform="matrix(1.25115e-07 -1 -1 -1.52714e-08 142.888 45.5703)" fill="#E9EDF7"/>
  <rect width="23.4863" height="5.33287" rx="2.66643" transform="matrix(1.25115e-07 -1 -1 -1.52715e-08 142.888 45.5703)" fill="#5663DA"/>
  <rect width="45.5705" height="5.33287" rx="2.66644" transform="matrix(1.25115e-07 -1 -1 -1.52714e-08 160.407 45.5703)" fill="#E9EDF7"/>
  <rect width="37.508" height="5.33288" rx="2.66644" transform="matrix(1.25115e-07 -1 -1 -1.52714e-08 160.407 45.5703)" fill="#5663DA"/>
</svg>