<svg xmlns="http://www.w3.org/2000/svg" width="13" height="13" viewBox="0 0 13 13" fill="none">
  <path d="M12.9599 6.51178C12.9599 8.28754 12.9599 10.0629 12.9599 11.8386C12.9599 12.5715 12.5518 12.9796 11.8202 12.9796C8.24825 12.9796 4.67624 12.98 1.10381 12.9796C0.55752 12.9796 0.17124 12.7045 0.0408809 12.2166C0.0116701 12.1076 0.00164251 11.9908 0.00164251 11.8774C-0.000537398 8.29451 -0.000537398 4.71205 0.000770549 1.12958C0.000770549 0.5785 0.277183 0.188732 0.757636 0.0614248C0.876659 0.0300341 1.0044 0.0191344 1.12778 0.0186984C4.69979 0.0165185 8.27179 0.0165185 11.8442 0.0173905C12.5418 0.0173905 12.9595 0.438113 12.9599 1.13786C12.9603 2.92932 12.9599 4.72033 12.9599 6.51178ZM1.06893 11.9036C4.68714 11.9036 8.28661 11.9036 11.8878 11.9036C11.8878 8.29538 11.8878 4.69897 11.8878 1.08337C11.8255 1.08337 11.7697 1.08337 11.7134 1.08337C8.22994 1.08337 4.746 1.08467 1.2625 1.07944C1.10119 1.07901 1.06544 1.12304 1.06544 1.27912C1.0698 4.75782 1.06893 8.23609 1.06893 11.7148C1.06893 11.7758 1.06893 11.8364 1.06893 11.9036Z" fill="#46ACFF"/>
  <path d="M4.22776 9.34332C4.44381 9.55868 4.65125 9.75854 4.84835 9.96839C4.89487 10.018 4.93415 10.1048 4.92588 10.1683C4.91382 10.262 4.81631 10.2592 4.73567 10.2592C4.13058 10.2585 3.52584 10.2589 2.92075 10.2582C2.76086 10.2578 2.71434 10.2127 2.714 10.0528C2.71296 9.44772 2.71055 8.84298 2.71779 8.23789C2.71848 8.17138 2.75983 8.07697 2.81151 8.04871C2.85045 8.02735 2.95142 8.07421 2.99828 8.11866C3.21261 8.32162 3.41764 8.53423 3.63094 8.74822C5.33249 7.0377 7.02371 5.33718 8.73492 3.61702C8.65532 3.54569 8.57985 3.48297 8.50956 3.4144C8.37104 3.27932 8.23596 3.1408 8.09881 3.00435C8.0423 2.94818 7.98234 2.8927 8.01784 2.80207C8.05574 2.70456 8.14327 2.70973 8.22631 2.70938C8.32107 2.70904 8.41549 2.70938 8.51025 2.70938C9.00817 2.70973 9.5061 2.70973 10.004 2.71042C10.1973 2.71076 10.2363 2.74935 10.2366 2.94094C10.237 3.53363 10.2366 4.12631 10.237 4.71865C10.237 4.80204 10.2428 4.90714 10.1436 4.92023C10.0781 4.92885 9.98817 4.8844 9.93614 4.83547C9.72663 4.63871 9.52746 4.43127 9.31933 4.2228C7.61984 5.93228 5.92862 7.6328 4.22776 9.34332Z" fill="#46ACFF"/>
</svg>