<svg xmlns="http://www.w3.org/2000/svg" width="20" height="20" viewBox="0 0 20 20" fill="none">
  <path d="M19.3616 5.95745H14.0425V0.638298C14.0425 0.469011 13.9752 0.306657 13.8555 0.186953C13.7358 0.067249 13.5735 0 13.4042 0H0.638237C0.46895 0 0.306596 0.067249 0.186892 0.186953C0.0671879 0.306657 -6.10352e-05 0.469011 -6.10352e-05 0.638298V13.4043C-6.10352e-05 13.5735 0.0671879 13.7359 0.186892 13.8556C0.306596 13.9753 0.46895 14.0426 0.638237 14.0426H5.95739V19.3617C5.95739 19.531 6.02464 19.6933 6.14434 19.813C6.26404 19.9328 6.4264 20 6.59568 20H19.3616C19.5309 20 19.6933 19.9328 19.813 19.813C19.9327 19.6933 19.9999 19.531 19.9999 19.3617V6.59574C19.9999 6.42646 19.9327 6.2641 19.813 6.1444C19.6933 6.0247 19.5309 5.95745 19.3616 5.95745ZM12.817 18.7234L1.27653 7.18298V2.18298L17.8212 18.7234H12.817ZM2.17866 1.2766H7.17866L18.7233 12.817V17.817L2.17866 1.2766ZM18.7233 11.0128L14.9446 7.23404H18.7233V11.0128ZM12.7659 5.05532L8.98717 1.2766H12.7659V5.05532ZM1.27653 8.99149L5.05526 12.766H1.27653V8.99149ZM7.23398 14.9489L11.0127 18.7234H7.23398V14.9489Z" fill="#46ACFF"/>
</svg>