<svg xmlns="http://www.w3.org/2000/svg" width="70" height="62" viewBox="0 0 70 62" fill="none">
  <path d="M67.6585 10.2121H1.42417L5.95822 1.00024H63.1245L67.6585 10.2121Z" stroke="#69D0CA" stroke-width="2" stroke-linecap="round" stroke-linejoin="round"/>
  <path d="M64.0218 10.2122H5.06223V35.6062H64.0218V10.2122Z" stroke="#69D0CA" stroke-width="2" stroke-linecap="round" stroke-linejoin="round"/>
  <path d="M64.0218 35.6062H5.06223V61.0003H64.0218V35.6062Z" stroke="#69D0CA" stroke-width="2" stroke-linecap="round" stroke-linejoin="round"/>
  <path d="M49.9205 35.6061L34.5419 29.0588L19.1634 35.6061" stroke="#69D0CA" stroke-width="2" stroke-linecap="round" stroke-linejoin="round"/>
  <path d="M22.4113 41.7982H10.391V61.0003H22.4113V41.7982Z" stroke="#69D0CA" stroke-width="2" stroke-linecap="round" stroke-linejoin="round"/>
  <path d="M19.3145 51.5431C19.3986 51.5431 19.4668 51.4749 19.4668 51.3908C19.4668 51.3067 19.3986 51.2385 19.3145 51.2385C19.2304 51.2385 19.1623 51.3067 19.1623 51.3908C19.1623 51.4749 19.2304 51.5431 19.3145 51.5431Z" stroke="#69D0CA" stroke-width="2" stroke-linecap="round" stroke-linejoin="round"/>
  <path d="M58.6928 41.7982H46.6725V61.0003H58.6928V41.7982Z" stroke="#69D0CA" stroke-width="2" stroke-linecap="round" stroke-linejoin="round"/>
  <path d="M55.606 51.5431C55.6901 51.5431 55.7582 51.4749 55.7582 51.3908C55.7582 51.3067 55.6901 51.2385 55.606 51.2385C55.5219 51.2385 55.4537 51.3067 55.4537 51.3908C55.4537 51.4749 55.5219 51.5431 55.606 51.5431Z" stroke="#69D0CA" stroke-width="2" stroke-linecap="round" stroke-linejoin="round"/>
  <path d="M17.5814 15.313H10.9579V25.5569H17.5814V15.313Z" stroke="#69D0CA" stroke-width="2" stroke-linecap="round" stroke-linejoin="round"/>
  <path d="M31.0993 15.313H24.4759V25.5569H31.0993V15.313Z" stroke="#69D0CA" stroke-width="2" stroke-linecap="round" stroke-linejoin="round"/>
  <path d="M44.6173 15.313H37.9939V25.5569H44.6173V15.313Z" stroke="#69D0CA" stroke-width="2" stroke-linecap="round" stroke-linejoin="round"/>
  <path d="M58.1253 15.313H51.5019V25.5569H58.1253V15.313Z" stroke="#69D0CA" stroke-width="2" stroke-linecap="round" stroke-linejoin="round"/>
  <path d="M34.5417 35.6062V60.9918" stroke="#69D0CA" stroke-width="2" stroke-linecap="round" stroke-linejoin="round"/>
  <path d="M1.42417 35.6062H67.6585" stroke="#69D0CA" stroke-width="2" stroke-linecap="round" stroke-linejoin="round"/>
  <path d="M34.5413 28.5852L1.42417 35.6062" stroke="#69D0CA" stroke-width="0.75" stroke-linecap="round" stroke-linejoin="round"/>
  <path d="M34.5417 28.5852L67.6588 35.6062" stroke="#69D0CA" stroke-width="0.75" stroke-linecap="round" stroke-linejoin="round"/>
  <path d="M68.0815 60.9917H1.00122" stroke="#69D0CA" stroke-width="2" stroke-linecap="round" stroke-linejoin="round"/>
</svg>