<svg xmlns="http://www.w3.org/2000/svg" width="39" height="38" viewBox="0 0 39 38" fill="none">
  <path d="M38.7907 28.4554C38.622 29.1888 38.5079 29.9404 38.2745 30.6536C37.1036 34.2319 33.8295 36.8362 30.029 37.1716C25.784 37.5474 22.0796 35.1512 20.4632 31.7083C20.3157 31.3951 20.153 31.3002 19.8166 31.3012C15.2838 31.3133 10.7509 31.3093 6.21798 31.3093C5.43606 31.3093 5.29059 31.1628 5.29059 30.3809C5.29059 25.3176 5.29059 20.2544 5.29059 15.1921C5.29059 15.0416 5.29059 14.8921 5.29059 14.69C5.1724 14.7547 5.08451 14.791 5.00975 14.8456C4.37533 15.3042 3.74696 15.7689 3.11052 16.2246C2.71451 16.5084 2.41144 16.4721 2.13262 16.0922C1.41536 15.1163 0.710223 14.1324 -0.000976562 13.1515C-0.000976562 13.0252 -0.000976562 12.8989 -0.000976562 12.7726C0.183895 12.6059 0.355633 12.4221 0.554648 12.2756C2.57106 10.7986 4.58949 9.32572 6.61399 7.8619C6.83018 7.70633 6.92817 7.54873 6.9211 7.27496C6.9019 6.53346 6.91403 5.79094 6.91403 5.02923C6.76552 5.0161 6.6544 5.007 6.54428 4.99589C6.19373 4.96053 5.97148 4.77364 5.96643 4.41703C5.9533 3.54622 5.95027 2.67439 5.96845 1.80357C5.97654 1.41666 6.21596 1.23078 6.66349 1.22673C7.52218 1.21865 8.38088 1.2237 9.23957 1.2237C10.4387 1.2237 11.6389 1.22168 12.838 1.22471C13.5058 1.22572 13.6815 1.40757 13.6846 2.08644C13.6856 2.25818 13.6846 2.42991 13.6846 2.67338C13.8513 2.56326 13.9533 2.50063 14.0513 2.42991C15.0413 1.70962 16.0303 0.988321 17.0203 0.268029C17.5032 -0.0835294 17.6618 -0.0895908 18.1306 0.251866C23.6787 4.29681 29.2269 8.34176 34.7731 12.3877C35.2388 12.7272 35.2862 13.0151 34.9549 13.4717C34.3397 14.3193 33.7214 15.1658 33.1011 16.0094C32.7475 16.4902 32.4748 16.5286 31.9889 16.1771C31.3251 15.6962 30.6614 15.2133 29.9967 14.7335C29.9805 14.7213 29.9502 14.7294 29.9027 14.7264C29.9027 15.8073 29.9027 16.8852 29.9027 17.8773C30.8907 18.1531 31.8889 18.3167 32.791 18.7037C36.2056 20.1695 38.1836 22.7779 38.721 26.4652C38.7331 26.5501 38.7665 26.6309 38.7907 26.7137C38.7907 27.2936 38.7907 27.8745 38.7907 28.4554ZM28.646 17.9763C28.6531 17.8268 28.6642 17.7035 28.6642 17.5803C28.6652 16.4185 28.6571 15.2578 28.6713 14.096C28.6743 13.8384 28.5854 13.6849 28.3824 13.5374C24.8708 10.9865 21.3613 8.43066 17.8588 5.86671C17.6436 5.70911 17.5133 5.7182 17.3042 5.87176C13.8119 8.42864 10.3144 10.9785 6.81199 13.5202C6.58267 13.6869 6.49377 13.8546 6.49478 14.1405C6.50387 19.3169 6.50185 24.4923 6.50286 29.6687C6.50286 29.802 6.51499 29.9354 6.52105 30.0525C6.58368 30.0748 6.60692 30.0899 6.63015 30.0899C8.63747 30.093 10.6448 30.093 12.6521 30.101C12.8713 30.102 12.9491 30.0172 12.9289 29.8101C12.9208 29.7222 12.9279 29.6333 12.9279 29.5454C12.9279 25.8338 12.9279 22.1223 12.9289 18.4107C12.9289 17.8116 13.1017 17.5853 13.6118 17.5843C16.2627 17.5773 18.9145 17.5773 21.5653 17.5843C22.0311 17.5853 22.2382 17.8177 22.2442 18.3076C22.2533 19.0269 22.2462 19.7472 22.2483 20.4665C22.2483 20.5726 22.2644 20.6776 22.2776 20.8514C24.0707 19.1017 26.1578 18.149 28.646 17.9763ZM29.1794 36.0038C33.8416 35.9775 37.6027 32.1861 37.5774 27.5381C37.5532 22.9072 33.7517 19.1552 29.1158 19.1855C24.4576 19.2169 20.7258 22.9759 20.743 27.6209C20.7602 32.2569 24.5586 36.0311 29.1794 36.0038ZM33.7113 13.1181C33.5557 13.0019 33.4254 12.9029 33.2931 12.807C28.1742 9.07418 23.0524 5.34543 17.9396 1.60456C17.6689 1.40656 17.5052 1.40049 17.2305 1.60254C13.0875 4.63827 8.93448 7.66087 4.78346 10.6865C3.68332 11.4886 2.58318 12.2928 1.45476 13.1161C1.9033 13.7303 2.33871 14.3263 2.79331 14.9486C2.95394 14.8345 3.08628 14.7436 3.2166 14.6486C7.81616 11.2957 12.4147 7.94171 17.0143 4.58877C17.4921 4.24024 17.6669 4.23317 18.0952 4.54533C22.6948 7.89827 27.2933 11.2512 31.8929 14.6042C32.0434 14.7143 32.197 14.8214 32.3748 14.9486C32.8304 14.3243 33.2658 13.7273 33.7113 13.1181ZM14.1715 18.8077C14.1715 22.5819 14.1715 26.3228 14.1715 30.0667C16.0748 30.0667 17.9457 30.0667 19.8379 30.0667C19.8227 29.9869 19.8146 29.9384 19.8035 29.8919C19.2105 27.3148 19.5671 24.8842 20.9158 22.6011C20.9936 22.4698 21.0289 22.294 21.0309 22.1384C21.041 21.1918 21.036 20.2453 21.036 19.2977C21.036 19.1401 21.036 18.9815 21.036 18.8067C18.7185 18.8077 16.4637 18.8077 14.1715 18.8077ZM7.19184 3.78665C8.83952 3.78665 10.4407 3.79574 12.0419 3.7715C12.1864 3.76948 12.4228 3.57753 12.4501 3.44014C12.5117 3.12899 12.4693 2.79663 12.4693 2.45517C10.6842 2.45517 8.94963 2.45517 7.19184 2.45517C7.19184 2.89866 7.19184 3.31891 7.19184 3.78665ZM10.4862 5.02923C9.63255 5.02923 8.8971 5.02923 8.14751 5.02923C8.14751 5.59091 8.14751 6.12431 8.14751 6.73146C8.93145 6.16068 9.66689 5.62526 10.4862 5.02923Z" fill="#FF9853"/>
  <path d="M28.2602 27.1956C29.1907 26.2298 30.0736 25.2752 31 24.3639C31.8799 23.4972 33.272 23.7467 33.8023 24.8286C34.1236 25.4823 34.0286 26.2601 33.5003 26.7925C32.1405 28.1624 30.7706 29.5232 29.3836 30.8658C28.7118 31.5153 27.7066 31.5083 27.0166 30.8688C26.2761 30.1828 25.5518 29.4787 24.8436 28.7604C24.1597 28.0664 24.1577 27.0229 24.8063 26.3359C25.4619 25.6419 26.5257 25.5954 27.2611 26.243C27.5723 26.5167 27.8622 26.8147 28.2602 27.1956ZM32.7941 25.6277C32.7456 25.4934 32.7275 25.3903 32.6759 25.3075C32.4769 24.9842 32.0981 24.9731 31.7758 25.2893C30.7696 26.2803 29.7705 27.2784 28.7664 28.2705C28.337 28.6948 28.0693 28.6998 27.64 28.2907C27.2662 27.9341 26.9005 27.5674 26.5257 27.2128C26.2388 26.942 25.9155 26.9319 25.6932 27.1714C25.471 27.4108 25.4892 27.6947 25.769 27.9704C26.4337 28.6251 27.1035 29.2746 27.7784 29.9182C28.0784 30.2041 28.339 30.2051 28.6381 29.9101C29.9493 28.618 31.2556 27.3209 32.5567 26.0187C32.6648 25.9116 32.7204 25.752 32.7941 25.6277Z" fill="#FF9853"/>
</svg>