<svg xmlns="http://www.w3.org/2000/svg" width="38" height="38" viewBox="0 0 38 38" fill="none">
  <path d="M0.00065645 18.9901C0.00065645 14.2788 -0.00135393 9.56647 0.00166164 4.85515C0.00266683 2.34319 1.66625 0.415234 4.15008 0.0413034C4.39735 0.00411139 4.65066 0.00210102 4.90095 0.00210102C13.4953 9.06378e-05 22.0897 -0.000914551 30.683 0.00109583C33.5338 0.00210102 35.5813 2.04364 35.5833 4.88531C35.5864 8.59144 35.5854 12.2986 35.5823 16.0047C35.5813 16.7455 35.0064 17.1989 34.3761 16.9637C33.9941 16.8209 33.8062 16.5264 33.779 16.1283C33.766 15.9283 33.775 15.7263 33.775 15.5252C33.775 12.0071 33.776 8.48891 33.775 4.97075C33.774 3.00259 32.5758 1.80843 30.6006 1.80843C22.0696 1.80843 13.5385 1.80843 5.0075 1.80843C3.01622 1.80843 1.81 3.00862 1.81 4.99186C1.81 14.327 1.81 23.6622 1.81 32.9974C1.81 34.9555 3.02527 36.1778 4.97835 36.1789C8.68448 36.1809 12.3916 36.1789 16.0978 36.1799C16.6426 36.1799 16.9964 36.4231 17.0999 36.8553C17.2155 37.3378 16.9451 37.8042 16.4616 37.9379C16.331 37.9741 16.1892 37.9862 16.0535 37.9862C12.2971 37.9882 8.53974 37.9972 4.78335 37.9842C2.48347 37.9761 0.60377 36.4623 0.117258 34.2429C0.0318173 33.8539 0.00668758 33.4457 0.00568239 33.0467C-0.00235912 28.3625 0.00065645 23.6763 0.00065645 18.9901Z" fill="#C292D6"/>
  <path d="M19.1434 29.0541C18.9032 29.0963 18.7062 29.1677 18.5142 29.1557C18.1463 29.1325 17.8739 28.9275 17.7512 28.5757C17.6196 28.1987 17.702 27.8529 18.0056 27.5825C18.5765 27.0719 19.1545 26.5693 19.7295 26.0637C21.7569 24.2805 23.7763 22.4882 25.8149 20.7191C27.0281 19.6657 28.6485 19.6848 29.8728 20.7241C30.0357 20.8618 30.1945 21.0046 30.3553 21.1463C30.496 21.2699 30.6368 21.3936 30.8086 21.5444C30.8519 21.4268 30.8881 21.3413 30.9162 21.2529C31.3344 19.9632 32.5828 19.1188 33.8936 19.2415C35.2908 19.3711 36.4116 20.4155 36.496 21.8228C36.5794 23.225 36.5493 24.6343 36.5272 26.0406C36.5211 26.4507 36.6397 26.7271 36.9584 26.9613C37.1805 27.1242 37.3786 27.3202 37.5836 27.5051C38.0008 27.8821 38.0953 28.2982 37.8621 28.7093C37.6309 29.1154 37.2258 29.2411 36.686 29.0742C36.6518 29.0632 36.6146 29.0602 36.5402 29.0461C36.5402 29.1949 36.5402 29.3296 36.5402 29.4653C36.5402 31.362 36.5422 33.2578 36.5392 35.1546C36.5372 36.9248 35.4667 37.9993 33.7056 37.9993C29.7874 38.0003 25.8691 38.0003 21.9499 37.9993C20.226 37.9983 19.1464 36.9238 19.1444 35.2089C19.1414 33.1593 19.1434 31.1128 19.1434 29.0541ZM31.2258 36.1849C32.1204 36.1849 32.9487 36.187 33.777 36.1839C34.4253 36.1819 34.7259 35.8934 34.7269 35.2441C34.7319 32.7201 34.7319 30.196 34.7198 27.673C34.7188 27.5232 34.6314 27.3292 34.5198 27.2297C32.613 25.538 30.6981 23.8573 28.7812 22.1766C28.1338 21.6087 27.5398 21.6057 26.9005 22.1656C24.9846 23.8462 23.0687 25.5279 21.1639 27.2207C21.0452 27.3262 20.9628 27.5343 20.9598 27.6961C20.9397 28.5495 20.9508 29.4039 20.9508 30.2573C20.9508 31.94 20.9487 33.6227 20.9528 35.3054C20.9538 35.7859 21.199 36.1477 21.6212 36.1618C22.5963 36.195 23.5723 36.1719 24.5875 36.1719C24.5875 35.4964 24.5865 34.847 24.5875 34.1977C24.5885 33.5835 24.7182 33.0035 25.0358 32.4718C25.7958 31.2002 27.3357 30.6242 28.8767 31.0344C30.2779 31.4073 31.1926 32.5864 31.2228 34.0771C31.2379 34.7646 31.2258 35.4522 31.2258 36.1849ZM29.4195 36.1849C29.4195 35.42 29.4396 34.7063 29.4134 33.9936C29.3883 33.286 28.8455 32.7804 28.1167 32.7321C27.203 32.6708 26.5316 33.0658 26.4562 33.8288C26.3808 34.5937 26.4401 35.3727 26.4401 36.1638C26.5175 36.1709 26.5899 36.1839 26.6622 36.1839C27.5619 36.1849 28.4625 36.1849 29.4195 36.1849ZM34.6857 24.9489C34.7138 24.8484 34.7259 24.8253 34.7259 24.8022C34.7279 24.1126 34.7329 23.4241 34.7279 22.7345C34.7259 22.435 34.7319 22.1304 34.6816 21.8369C34.6103 21.4157 34.3288 21.1443 33.9197 21.0458C33.5156 20.9483 33.1487 21.0478 32.8622 21.3695C32.628 21.6328 32.4602 22.7908 32.612 23.1034C32.628 23.1366 32.6542 23.1667 32.6823 23.1909C33.3377 23.7668 33.9941 24.3428 34.6857 24.9489Z" fill="#C292D6"/>
  <path d="M17.4821 9.98468C14.5921 9.98468 11.7032 9.98468 8.8133 9.98468C8.04433 9.98468 7.62416 9.67106 7.61612 9.09509C7.60707 8.50806 8.04232 8.17635 8.82737 8.17534C14.6062 8.17434 20.386 8.17534 26.1649 8.17534C26.2775 8.17534 26.391 8.17434 26.5036 8.18539C27.0344 8.23666 27.3761 8.59451 27.3731 9.09006C27.3701 9.58562 27.0183 9.94347 26.4896 9.97966C26.3518 9.9887 26.2131 9.98468 26.0754 9.98468C23.2106 9.98468 20.3458 9.98468 17.4821 9.98468Z" fill="#C292D6"/>
  <path d="M15.2796 17.0129C13.1315 17.0129 10.9834 17.0139 8.83532 17.0109C8.64836 17.0109 8.45536 17.0038 8.27442 16.9606C7.87034 16.8651 7.59592 16.4741 7.61502 16.063C7.63613 15.6318 7.95779 15.2739 8.38801 15.2206C8.53678 15.2015 8.68856 15.2046 8.83934 15.2046C13.1355 15.2035 17.4327 15.2035 21.7289 15.2046C21.8797 15.2046 22.0314 15.2015 22.1802 15.2206C22.5984 15.2739 22.908 15.6086 22.9401 16.0298C22.9733 16.4671 22.7059 16.8641 22.2847 16.9626C22.1038 17.0048 21.9118 17.0109 21.7239 17.0119C19.5768 17.0149 17.4277 17.0129 15.2796 17.0129Z" fill="#C292D6"/>
  <path d="M11.3054 22.2219C12.183 22.2219 13.0605 22.2169 13.939 22.2229C14.5502 22.2269 14.9322 22.5727 14.9362 23.1065C14.9412 23.6392 14.5602 24.0212 13.9632 24.0252C12.1699 24.0363 10.3766 24.0373 8.58439 24.0242C7.99937 24.0202 7.60132 23.6111 7.6164 23.0934C7.63147 22.5818 8.02048 22.2279 8.59746 22.2229C9.49912 22.2169 10.4018 22.2219 11.3054 22.2219Z" fill="#C292D6"/>
  <path d="M27.8266 23.9517C29.3133 23.9477 30.5165 25.1419 30.5145 26.6205C30.5125 28.0921 29.2942 29.3054 27.8246 29.2973C26.358 29.2893 25.1719 28.1032 25.1659 26.6386C25.1599 25.1449 26.3379 23.9558 27.8266 23.9517ZM27.8316 27.4779C28.3061 27.4789 28.6991 27.0899 28.7011 26.6195C28.7031 26.1481 28.3141 25.7621 27.8357 25.7601C27.3502 25.7581 26.9762 26.13 26.9762 26.6145C26.9762 27.097 27.3532 27.4769 27.8316 27.4779Z" fill="#C292D6"/>
</svg>