<svg width="38" height="38" viewBox="0 0 38 38" fill="none" xmlns="http://www.w3.org/2000/svg">
<g id="Group 1000003093">
<path id="Vector" d="M0.571588 38C0.383175 37.6338 0.203231 37.2845 0 36.8896C0.265682 36.7531 0.514429 36.6144 0.770585 36.4938C1.33265 36.2302 1.89047 35.9539 2.46735 35.7274C2.75103 35.6163 2.83042 35.4702 2.82936 35.1759C2.81983 30.7578 2.8283 26.3386 2.81454 21.9204C2.81348 21.4504 2.95426 21.135 3.33214 20.8481C4.97387 19.5991 6.59125 18.3173 8.22769 17.0619C8.46373 16.8809 8.54735 16.6957 8.5463 16.4014C8.53571 13.1338 8.53889 9.86624 8.53994 6.59866C8.53994 5.87042 8.72306 5.68836 9.45448 5.68836C10.0864 5.68836 10.7194 5.68836 11.3979 5.68836C11.3979 5.09454 11.3958 4.53036 11.3979 3.96618C11.4 3.36708 11.6128 3.1522 12.2066 3.14902C12.7623 3.14585 13.3169 3.14797 13.916 3.14797C13.916 2.10006 13.916 1.06379 13.916 0C14.3606 0 14.7607 0 15.1926 0C15.1926 1.03097 15.1926 2.05772 15.1926 3.14797C15.7695 3.14797 16.3178 3.14691 16.8671 3.14797C17.5467 3.14902 17.7467 3.34485 17.7478 4.01382C17.7489 4.55471 17.7478 5.09454 17.7478 5.68836C18.4274 5.68836 19.0826 5.6873 19.7388 5.68836C20.4089 5.68941 20.6047 5.88841 20.6057 6.56797C20.6068 7.52061 20.6142 8.47326 20.6004 9.4259C20.5962 9.67253 20.6798 9.79744 20.8958 9.91281C23.343 11.2211 25.7797 12.5474 28.2301 13.8483C28.6821 14.0875 28.9022 14.3754 28.8726 14.9057C28.8324 15.6276 28.8631 16.3538 28.8631 17.1201C29.4092 17.1201 29.9216 17.1201 30.4328 17.1201C31.5305 17.1201 32.6292 17.1191 33.7269 17.1201C34.3747 17.1212 34.5779 17.3244 34.5779 17.9754C34.5789 23.6902 34.5821 29.405 34.5694 35.1209C34.5684 35.4691 34.6763 35.6237 34.9907 35.7549C35.793 36.0905 36.5753 36.4715 37.4168 36.8568C37.2135 37.2559 37.0304 37.6147 36.8589 37.9513C35.1908 37.2358 33.5458 36.5297 31.8544 35.8047C31.9761 35.4543 32.1074 35.0754 32.2471 34.6731C32.6091 34.8012 32.9393 34.9187 33.2939 35.0436C33.2939 29.4865 33.2939 23.9622 33.2939 18.4136C31.8194 18.4136 30.3608 18.4136 28.8715 18.4136C28.8715 21.5732 28.8715 24.7159 28.8715 27.8882C28.4418 27.8882 28.0406 27.8882 27.5929 27.8882C27.5929 27.7326 27.5929 27.578 27.5929 27.4246C27.5929 23.3896 27.5918 19.3546 27.596 15.3196C27.596 15.0931 27.5696 14.9354 27.3346 14.8105C25.189 13.6684 23.0509 12.5114 20.9095 11.3598C20.8312 11.3174 20.7497 11.2814 20.6184 11.219C20.6184 12.5654 20.6184 13.8652 20.6184 15.1894C20.1781 15.1894 19.778 15.1894 19.3472 15.1894C19.3472 12.4585 19.3472 9.73816 19.3472 6.98819C16.1653 6.98819 13.0121 6.98819 9.83449 6.98819C9.83449 15.7504 9.83449 24.5137 9.83449 33.2378C11.7197 32.9901 13.6059 32.7065 15.5017 32.5032C17.408 32.2989 19.3228 32.3138 21.2694 32.4524C21.2493 32.879 21.2302 33.2696 21.2091 33.7057C13.9362 33.2939 7.07393 34.725 0.571588 38ZM8.53889 18.4401C8.37588 18.5575 8.27003 18.6285 8.17053 18.7068C6.91727 19.6806 5.6693 20.6608 4.40758 21.623C4.17259 21.8029 4.08579 21.985 4.08685 22.2813C4.09744 26.3957 4.09426 30.509 4.09426 34.6234C4.09426 34.7515 4.09426 34.8796 4.09426 35.0394C4.22234 35.0034 4.31019 34.9822 4.39593 34.9547C5.66613 34.5504 6.93209 34.1323 8.20864 33.7491C8.48384 33.6665 8.5463 33.5522 8.54524 33.2865C8.53571 30.5355 8.53889 27.7834 8.53889 25.0324C8.53889 22.8635 8.53889 20.6936 8.53889 18.4401ZM16.4469 5.67142C16.4469 5.23426 16.4469 4.83309 16.4469 4.44992C15.1704 4.44992 13.9245 4.44992 12.6892 4.44992C12.6892 4.87437 12.6892 5.26602 12.6892 5.67142C13.9499 5.67142 15.1862 5.67142 16.4469 5.67142Z" fill="#46ACFF"/>
<path id="Vector_2" d="M23.3018 30.3492C23.0276 29.9999 22.7757 29.6792 22.5079 29.3383C20.646 30.4762 18.6772 30.7726 16.6057 30.1195C14.9249 29.5892 13.6293 28.5434 12.7306 27.0245C10.946 24.0088 11.7123 20.1125 14.4993 17.9902C17.3149 15.8468 21.242 16.1442 23.7104 18.6782C26.1555 21.189 26.5164 25.5574 23.5188 28.5646C23.7654 28.88 24.0163 29.1997 24.2873 29.5458C24.392 29.4749 24.4894 29.4177 24.5794 29.3489C25.1827 28.8874 25.4093 28.916 25.8877 29.5246C27.1791 31.1664 28.4683 32.8102 29.7586 34.4519C29.9629 34.7123 30.1746 34.9664 30.3683 35.2342C30.6245 35.5888 30.6001 35.9031 30.2656 36.1762C29.6305 36.6938 28.9859 37.2009 28.3328 37.6962C27.9486 37.9873 27.6342 37.91 27.2881 37.4697C25.9067 35.7137 24.5265 33.9566 23.1462 32.2005C23.0234 32.0449 22.8985 31.8904 22.7789 31.7327C22.4635 31.3135 22.4984 31.0055 22.9006 30.6731C23.0213 30.5715 23.1462 30.4752 23.3018 30.3492ZM24.4143 23.4563C24.4111 20.3337 21.8538 17.7616 18.7471 17.7552C15.5525 17.7489 12.9846 20.303 12.9867 23.4838C12.9899 26.6222 15.5515 29.1806 18.6942 29.1859C21.8527 29.1891 24.4174 26.6212 24.4143 23.4563ZM24.0893 31.3527C25.4156 33.0388 26.7112 34.6848 28.0163 36.3424C28.3572 36.0736 28.6662 35.828 29.0113 35.556C27.6998 33.8878 26.4 32.2354 25.0875 30.5673C24.7339 30.8446 24.4249 31.088 24.0893 31.3527Z" fill="#46ACFF"/>
<path id="Vector_3" d="M16.1559 24.7403C16.5433 24.7403 16.899 24.7307 17.2536 24.7477C17.3308 24.7519 17.4367 24.8355 17.4727 24.9107C17.6368 25.2526 17.9045 25.3859 18.2718 25.3775C18.6159 25.369 18.9599 25.3849 19.3039 25.3785C19.6945 25.3711 19.9686 25.1012 19.9676 24.7392C19.9665 24.3772 19.6934 24.1083 19.3018 24.102C18.9451 24.0956 18.5873 24.1073 18.2306 24.1052C17.1382 24.0988 16.2829 23.3674 16.1707 22.348C16.0702 21.4325 16.7847 20.5613 17.8241 20.3348C17.8887 20.321 17.9532 20.3073 18.0496 20.2861C18.0591 20.0998 18.0686 19.9072 18.0803 19.688C18.4857 19.688 18.8879 19.688 19.3208 19.688C19.3303 19.8818 19.3399 20.0744 19.3483 20.2628C20.6672 20.6608 21.1531 21.1541 21.224 22.1776C20.8196 22.1776 20.4153 22.1776 19.9866 22.1776C19.8395 21.6674 19.4563 21.5256 18.9514 21.5626C18.6624 21.5838 18.3692 21.5552 18.0792 21.5637C17.7108 21.5743 17.4462 21.8368 17.4356 22.1829C17.424 22.5439 17.6971 22.8307 18.0813 22.8402C18.4518 22.8487 18.8223 22.836 19.1927 22.8381C20.2756 22.8445 21.1361 23.595 21.2356 24.6143C21.3235 25.5182 20.6154 26.3799 19.6003 26.6032C19.523 26.6201 19.4457 26.6392 19.3536 26.6604C19.3441 26.8551 19.3346 27.0499 19.324 27.2626C18.9144 27.2626 18.5227 27.2626 18.0898 27.2626C18.0781 27.0785 18.0665 26.8869 18.0527 26.6635C16.9805 26.4868 16.2967 25.9088 16.1559 24.7403Z" fill="#46ACFF"/>
</g>
</svg>
