<svg xmlns="http://www.w3.org/2000/svg" width="39" height="38" viewBox="0 0 39 38" fill="none">
  <path d="M23.4498 15.1731C23.4498 14.725 23.4498 14.333 23.4498 13.905C22.7999 13.905 22.1701 13.905 21.5392 13.905C20.5617 13.905 19.5842 13.9039 18.6066 13.905C17.9641 13.906 17.7633 14.111 17.7633 14.7641C17.7623 21.8044 17.7623 28.8446 17.7633 35.8859C17.7633 36.5284 17.9694 36.7302 18.6225 36.7302C23.8662 36.7313 29.111 36.7302 34.3547 36.7302C34.5122 36.7302 34.6686 36.7302 34.8546 36.7302C34.8546 37.1508 34.8546 37.5514 34.8546 37.9984C34.7119 37.9984 34.5713 37.9984 34.4308 37.9984C29.1607 37.9984 23.8895 38.0005 18.6193 37.9942C18.3329 37.9942 18.0466 37.9265 17.7602 37.8874C17.6957 37.879 17.6323 37.842 17.571 37.8473C16.9602 37.8948 16.3504 37.991 15.7396 37.992C10.8129 38.0037 5.88519 37.9994 0.9585 37.9984C0.177544 37.9984 0.00845959 37.8282 0.00845959 37.0462C0.00845959 32.1851 0.0137435 27.3239 5.38747e-06 22.4638C-0.00105139 21.983 0.153238 21.6818 0.570664 21.4387C1.56192 20.8607 2.52358 20.2308 3.51167 19.6475C3.75473 19.5038 3.81813 19.3421 3.81708 19.0789C3.80968 15.116 3.81708 11.1531 3.80545 7.19128C3.80439 6.7189 3.96185 6.44308 4.40676 6.25074C9.10412 4.22068 13.7951 2.17899 18.483 0.128847C18.8645 -0.0381232 19.1889 -0.0455206 19.5736 0.122507C24.2371 2.16208 28.9039 4.19532 33.5769 6.21059C34.0768 6.42617 34.267 6.71995 34.2585 7.26314C34.2311 9.03218 34.248 10.8023 34.248 12.6368C34.8588 12.6368 35.4601 12.6421 36.0603 12.6347C36.5412 12.6294 36.9745 12.7594 37.3454 13.0659C37.8473 13.4812 38.0545 14.0244 38.0545 14.6722C38.0492 18.5421 38.0524 22.4131 38.0524 26.283C38.0524 28.9777 38.0524 31.6725 38.0524 34.3673C38.0524 34.5089 38.0524 34.6516 38.0524 34.8101C37.6223 34.8101 37.2312 34.8101 36.7842 34.8101C36.7842 34.6558 36.7842 34.5026 36.7842 34.3504C36.7842 27.8512 36.7842 21.3531 36.7842 14.854C36.7842 14.074 36.6141 13.905 35.83 13.905C34.4033 13.905 32.9767 13.905 31.55 13.905C31.4074 13.905 31.2647 13.905 31.0998 13.905C31.0998 14.3266 31.0998 14.7176 31.0998 15.1731C31.2277 15.1731 31.3661 15.1731 31.5046 15.1731C32.5878 15.1731 33.671 15.1699 34.7542 15.1742C35.2762 15.1763 35.5129 15.4045 35.514 15.9181C35.5172 19.6168 35.515 23.3155 35.515 27.0143C35.515 27.066 35.5066 27.1168 35.4992 27.1939C35.0923 27.1939 34.6918 27.1939 34.2617 27.1939C34.2617 23.6252 34.2617 20.0639 34.2617 16.4719C33.1986 16.4719 32.164 16.4719 31.0776 16.4719C31.0776 16.6061 31.0787 16.7456 31.0776 16.8851C31.0724 17.5001 30.8631 17.7083 30.2365 17.7083C28.2687 17.7094 26.3 17.7094 24.3322 17.7083C23.677 17.7083 23.4741 17.5086 23.4699 16.8661C23.4689 16.7371 23.4699 16.6082 23.4699 16.4602C22.4089 16.4602 21.3838 16.4602 20.3292 16.4602C20.3292 22.3539 20.3292 28.2496 20.3292 34.1887C23.0525 34.1887 25.7779 34.1887 28.5234 34.1887C28.5234 34.623 28.5234 35.014 28.5234 35.4442C28.3987 35.4505 28.2719 35.4611 28.1462 35.4611C25.3985 35.4621 22.6509 35.4621 19.9033 35.4611C19.2301 35.4611 19.0325 35.2634 19.0325 34.5882C19.0325 28.406 19.0325 22.225 19.0325 16.0428C19.0325 15.3675 19.2291 15.172 19.9033 15.171C21.0753 15.172 22.2483 15.1731 23.4498 15.1731ZM16.4751 20.998C16.4751 19.0229 16.4751 17.1165 16.4751 15.1731C16.3145 15.1731 16.1729 15.1731 16.0313 15.1731C14.5655 15.1731 13.0998 15.1742 11.633 15.1731C10.9915 15.172 10.7886 14.966 10.7886 14.3139C10.7876 11.9362 10.7876 9.55951 10.7886 7.18176C10.7886 6.48429 10.9788 6.29619 11.6848 6.29619C16.5713 6.29619 21.4578 6.29619 26.3443 6.29619C27.0978 6.29619 27.2733 6.47267 27.2733 7.22932C27.2733 8.17725 27.2733 9.12517 27.2733 10.0784C28.4304 10.1872 29.2938 10.6998 29.6394 11.7967C29.8127 12.3494 30.2206 12.5544 30.6349 12.6041C31.3979 12.696 32.1799 12.6305 32.9798 12.6305C32.9798 10.9502 32.9714 9.31434 32.9883 7.6795C32.9915 7.40052 32.8837 7.29484 32.6512 7.19445C28.2117 5.27006 23.7764 3.33616 19.3337 1.41706C19.1667 1.3452 18.9142 1.34097 18.7483 1.41283C14.295 3.33933 9.84809 5.27957 5.3959 7.20713C5.14967 7.31386 5.07464 7.43645 5.0757 7.69958C5.08521 11.226 5.08204 14.7525 5.08309 18.2779C5.08309 18.3878 5.09789 18.4967 5.10846 18.6425C5.26274 18.5537 5.37688 18.4914 5.48784 18.4227C6.46535 17.8214 7.4471 17.2254 8.41828 16.6145C8.73425 16.4159 9.02275 16.3937 9.33767 16.604C9.61137 16.7868 9.89776 16.9516 10.1789 17.125C12.2565 18.4037 14.3352 19.6824 16.4751 20.998ZM16.4815 36.7144C16.4868 36.614 16.4942 36.5495 16.4942 36.4851C16.4952 31.9156 16.4931 27.3471 16.5005 22.7776C16.5005 22.561 16.4233 22.4511 16.2469 22.3433C13.8839 20.8966 11.5241 19.4456 9.16859 17.9852C8.95723 17.8541 8.80717 17.8647 8.60004 17.9926C6.25611 19.4446 3.90796 20.8913 1.55241 22.3253C1.32309 22.4648 1.27236 22.6202 1.27236 22.8654C1.2787 27.3556 1.27659 31.8458 1.27765 36.335C1.27765 36.4618 1.28927 36.5876 1.29455 36.7123C2.57008 36.7123 3.80651 36.7123 5.08098 36.7123C5.08098 36.5517 5.08098 36.41 5.08098 36.2684C5.08098 33.3232 5.07992 30.379 5.08098 27.4338C5.08098 26.7881 5.28494 26.5873 5.93697 26.5873C7.89094 26.5863 9.84598 26.5863 11.8 26.5873C12.4995 26.5873 12.6887 26.7775 12.6887 27.4814C12.6887 30.4128 12.6887 33.3443 12.6887 36.2769C12.6887 36.4174 12.6887 36.5591 12.6887 36.7155C13.9695 36.7144 15.2059 36.7144 16.4815 36.7144ZM11.3942 36.7133C11.3942 33.747 11.3942 30.8113 11.3942 27.8861C9.69909 27.8861 8.03044 27.8861 6.37024 27.8861C6.37024 30.844 6.37024 33.7692 6.37024 36.7133C8.0484 36.7133 9.70754 36.7133 11.3942 36.7133ZM15.8326 13.887C15.8326 11.765 15.8326 9.6747 15.8326 7.59602C14.5592 7.59602 13.3143 7.59602 12.0768 7.59602C12.0768 9.70851 12.0768 11.7893 12.0768 13.887C13.3333 13.887 14.5687 13.887 15.8326 13.887ZM29.8095 16.4222C29.8095 15.7353 29.7641 15.0727 29.8233 14.4207C29.8771 13.8299 29.688 13.4865 29.1216 13.3111C28.7739 13.2033 28.5572 12.9718 28.5308 12.5607C28.4864 11.8686 27.9443 11.375 27.2849 11.3698C26.6075 11.3634 26.0717 11.8569 26.0115 12.5755C25.984 12.9021 25.8445 13.1187 25.556 13.2561C25.3415 13.3586 25.1259 13.459 24.9219 13.5795C24.8437 13.626 24.7465 13.7243 24.7454 13.8003C24.7328 14.668 24.7381 15.5356 24.7381 16.4222C26.4352 16.4222 28.0944 16.4222 29.8095 16.4222ZM17.142 13.0659C18.3583 12.2839 19.6877 12.8228 20.9115 12.5903C20.9115 10.9153 20.9115 9.25727 20.9115 7.58968C19.6455 7.58968 18.3995 7.58968 17.142 7.58968C17.142 9.41896 17.142 11.2229 17.142 13.0659ZM26.0041 7.58545C24.7063 7.58545 23.471 7.58545 22.225 7.58545C22.225 9.27418 22.225 10.9407 22.225 12.6358C22.7872 12.6358 23.3347 12.6928 23.862 12.6157C24.2234 12.5629 24.6715 12.4667 24.8078 12.0292C24.9948 11.4268 25.3087 10.9344 25.8191 10.5603C25.9026 10.499 25.9967 10.3817 25.9977 10.2897C26.0104 9.39571 26.0041 8.50062 26.0041 7.58545Z" fill="#5663DA"/>
  <path d="M33.9056 32.9586C35.2224 34.2743 36.5275 35.5773 37.8421 36.8909C37.5251 37.1773 37.2271 37.4467 36.8329 37.8029C36.7991 37.7458 36.7463 37.5979 36.6459 37.4964C35.4845 36.3255 34.3114 35.1652 33.1532 33.9911C32.9725 33.8083 32.8415 33.7586 32.5826 33.8706C31.0967 34.5163 29.4365 34.1707 28.3269 33.0157C27.248 31.8934 26.9669 30.2047 27.6221 28.7928C28.291 27.3514 29.7737 26.4827 31.3747 26.5926C34.228 26.7892 35.8364 30.0567 34.2628 32.4609C34.1624 32.6152 34.0483 32.761 33.9056 32.9586ZM28.5425 30.3325C28.5182 31.7412 29.6363 32.9068 31.0291 32.9259C32.4336 32.9449 33.5939 31.8226 33.6129 30.4276C33.6319 29.0422 32.5223 27.8861 31.1443 27.8555C29.7377 27.8248 28.5668 28.9387 28.5425 30.3325Z" fill="#5663DA"/>
  <path d="M27.0566 19.4308C25.9935 20.5014 24.9504 21.5624 23.8926 22.6075C23.6316 22.8654 23.304 22.8537 23.0377 22.6012C22.6086 22.1954 22.2028 21.7642 21.7791 21.3362C22.076 21.0371 22.3592 20.7529 22.6741 20.4369C22.9183 20.7138 23.1518 20.9801 23.398 21.2591C24.346 20.309 25.2432 19.4097 26.1499 18.5009C26.4849 18.8454 26.7586 19.1265 27.0566 19.4308Z" fill="#5663DA"/>
  <path d="M21.7178 25.8148C22.0707 25.4809 22.3561 25.2114 22.7016 24.8859C22.9013 25.1533 23.1201 25.446 23.3579 25.7641C24.3608 24.7591 25.2569 23.8598 26.1626 22.952C26.4923 23.2839 26.7691 23.5628 27.0693 23.8651C26.9784 23.9634 26.8949 24.0595 26.804 24.1504C25.966 24.9895 25.1269 25.8286 24.2889 26.6666C23.5354 27.4201 23.4107 27.4169 22.6636 26.6814C22.3645 26.3865 22.0443 26.1128 21.7178 25.8148Z" fill="#5663DA"/>
  <path d="M26.1329 27.4C26.488 27.7413 26.7712 28.0129 27.0935 28.3226C26.7331 28.6745 26.3834 29.0105 26.0399 29.3529C25.3667 30.0219 24.6999 30.6971 24.0257 31.364C23.6178 31.7676 23.3208 31.7613 22.9066 31.3597C22.5293 30.9941 22.1499 30.6284 21.7557 30.248C22.0907 29.9458 22.3877 29.6773 22.7523 29.3487C22.9277 29.5738 23.1517 29.8623 23.3863 30.1635C24.3533 29.1923 25.2399 28.2993 26.1329 27.4Z" fill="#5663DA"/>
  <path d="M27.9368 19.6284C29.6213 19.6284 31.2784 19.6284 32.9586 19.6284C32.9586 20.0353 32.9586 20.4253 32.9586 20.848C31.3005 20.848 29.634 20.848 27.9368 20.848C27.9368 20.4612 27.9368 20.0617 27.9368 19.6284Z" fill="#5663DA"/>
  <path d="M27.9263 24.6577C27.9263 24.2371 27.9263 23.8471 27.9263 23.436C29.6024 23.436 31.2594 23.436 32.9492 23.436C32.9492 23.8292 32.9492 24.2297 32.9492 24.6577C31.29 24.6577 29.6235 24.6577 27.9263 24.6577Z" fill="#5663DA"/>
  <path d="M8.86645 25.3181C7.86357 25.3181 6.85963 25.3213 5.85675 25.3171C5.31146 25.315 5.08531 25.0899 5.08214 24.5488C5.07791 23.7964 5.09059 23.044 5.07685 22.2915C5.07051 21.9322 5.22057 21.6998 5.52387 21.5212C6.50139 20.9452 7.47467 20.3629 8.44162 19.7711C8.74809 19.583 9.02074 19.582 9.3272 19.769C10.3068 20.3672 11.2917 20.9547 12.2788 21.5402C12.5525 21.7029 12.6951 21.9227 12.693 22.2493C12.6856 23.0281 12.6951 23.807 12.6888 24.5858C12.6846 25.0783 12.4489 25.3139 11.9565 25.3171C10.9261 25.3224 9.8968 25.3181 8.86645 25.3181ZM11.4207 24.031C11.4207 23.5554 11.4312 23.0979 11.4112 22.6413C11.4069 22.5526 11.3034 22.4395 11.2157 22.3856C10.5214 21.9576 9.82494 21.5317 9.11373 21.1312C8.99643 21.0646 8.77768 21.0657 8.66038 21.1312C7.95022 21.5328 7.25487 21.9597 6.55739 22.3845C6.47602 22.4342 6.364 22.523 6.36083 22.597C6.34287 23.0767 6.35132 23.5576 6.35132 24.0299C8.0707 24.031 9.72666 24.031 11.4207 24.031Z" fill="#5663DA"/>
</svg>