<svg xmlns="http://www.w3.org/2000/svg" width="177" height="80" viewBox="0 0 177 80" fill="none">
  <g opacity="0.9">
    <path d="M116.243 75.0384C116.075 74.5058 115.878 74.0013 115.682 73.4967C115.486 72.9922 115.318 72.4596 115.121 71.927H109.515C109.347 72.4596 109.151 72.9922 108.983 73.4967C108.786 74.0013 108.618 74.5338 108.45 75.0384H105.955C106.46 73.6369 106.936 72.3194 107.357 71.1141C107.805 69.9088 108.226 68.7875 108.674 67.7224C109.095 66.6572 109.515 65.62 109.936 64.667C110.356 63.6859 110.777 62.7329 111.225 61.8079H113.524C113.972 62.7609 114.393 63.714 114.813 64.667C115.234 65.6481 115.654 66.6572 116.075 67.7224C116.495 68.7875 116.943 69.9368 117.392 71.1141C117.84 72.3194 118.317 73.6088 118.822 75.0384H116.243ZM112.318 64.3587C112.038 65.0314 111.702 65.8443 111.309 66.8254C110.945 67.8065 110.552 68.8436 110.132 69.9929H114.477C114.056 68.8716 113.664 67.8065 113.299 66.8254C112.935 65.8443 112.599 65.0034 112.318 64.3587Z" fill="white"/>
    <path d="M119.438 65.3683C119.886 65.2281 120.475 65.116 121.175 65.0039C121.876 64.8918 122.689 64.8357 123.558 64.8357C124.371 64.8357 125.044 64.9478 125.604 65.1721C126.165 65.3963 126.585 65.7046 126.922 66.0971C127.258 66.4895 127.482 66.9941 127.622 67.5547C127.763 68.1153 127.819 68.732 127.819 69.4047V75.0109H125.492V69.7411C125.492 69.2085 125.464 68.76 125.38 68.3676C125.324 68.0032 125.184 67.6948 125.044 67.4426C124.875 67.2183 124.679 67.0221 124.399 66.938C124.119 66.8259 123.782 66.7698 123.39 66.7698C123.11 66.7698 122.801 66.7979 122.465 66.8259C122.128 66.8539 121.904 66.91 121.764 66.91V75.0389H119.466V65.3683H119.438Z" fill="white"/>
    <path d="M132.976 64.8074C133.733 64.8074 134.378 64.8915 134.91 65.0877C135.443 65.2839 135.863 65.5362 136.172 65.9006C136.48 66.2369 136.704 66.6574 136.844 67.162C136.985 67.6665 137.041 68.1991 137.041 68.7878V74.8424C136.676 74.9265 136.144 75.0106 135.415 75.1227C134.686 75.2348 133.873 75.2909 132.976 75.2909C132.387 75.2909 131.827 75.2348 131.322 75.1227C130.818 75.0106 130.397 74.8144 130.061 74.5621C129.697 74.3098 129.444 73.9734 129.248 73.581C129.052 73.1886 128.94 72.656 128.94 72.0673C128.94 71.5067 129.052 71.0022 129.276 70.6098C129.5 70.2173 129.809 69.8809 130.173 69.6567C130.565 69.4044 130.986 69.2362 131.491 69.1241C131.995 69.012 132.528 68.9559 133.06 68.9559C133.313 68.9559 133.593 68.984 133.873 69.012C134.153 69.04 134.462 69.0961 134.77 69.1802V68.7878C134.77 68.5074 134.742 68.2552 134.686 68.0309C134.63 67.7786 134.518 67.5824 134.35 67.3862C134.181 67.19 133.985 67.0498 133.733 66.9657C133.481 66.8536 133.144 66.8256 132.752 66.8256C132.219 66.8256 131.715 66.8536 131.266 66.9377C130.818 67.0218 130.453 67.1059 130.173 67.218L129.893 65.34C130.173 65.2278 130.622 65.1437 131.182 65.0316C131.743 64.8634 132.331 64.8074 132.976 64.8074ZM133.172 73.4128C133.873 73.4128 134.434 73.3848 134.798 73.3007V70.7499C134.658 70.7219 134.49 70.6658 134.238 70.6378C133.985 70.6097 133.733 70.5817 133.425 70.5817C133.172 70.5817 132.92 70.6097 132.64 70.6378C132.387 70.6658 132.135 70.7499 131.939 70.862C131.743 70.9742 131.547 71.1143 131.434 71.2825C131.294 71.4787 131.238 71.703 131.238 71.9833C131.238 72.5439 131.406 72.9083 131.743 73.1325C132.107 73.3287 132.584 73.4128 133.172 73.4128Z" fill="white"/>
    <path d="M142.371 75.2348C141.67 75.2348 141.11 75.1507 140.661 75.0105C140.213 74.8704 139.848 74.6741 139.568 74.4219C139.288 74.1696 139.12 73.8332 139.007 73.4408C138.895 73.0484 138.839 72.5999 138.839 72.1233V60.6307L141.138 60.2383V71.6749C141.138 71.9552 141.166 72.1794 141.194 72.3756C141.25 72.5718 141.306 72.74 141.446 72.8521C141.558 72.9923 141.726 73.0764 141.923 73.1605C142.119 73.2446 142.371 73.2726 142.68 73.3287L142.371 75.2348Z" fill="white"/>
    <path d="M151.791 65.0596C150.754 68.8437 149.577 72.2915 148.203 75.3749C147.951 75.9355 147.699 76.4401 147.418 76.8605C147.138 77.281 146.858 77.6174 146.521 77.8697C146.185 78.15 145.821 78.3181 145.4 78.4583C144.98 78.5704 144.531 78.6265 143.971 78.6265C143.606 78.6265 143.27 78.5984 142.905 78.5144C142.541 78.4303 142.289 78.3462 142.12 78.2621L142.541 76.412C142.989 76.5802 143.466 76.6924 143.914 76.6924C144.503 76.6924 144.98 76.5522 145.316 76.2719C145.652 75.9916 145.961 75.5431 146.213 74.9545C145.484 73.5529 144.783 72.0112 144.111 70.3574C143.438 68.7036 142.849 66.9376 142.317 65.0876H144.783C144.924 65.6202 145.064 66.2088 145.26 66.8255C145.456 67.4422 145.652 68.0869 145.877 68.7316C146.101 69.3763 146.325 70.021 146.577 70.6657C146.83 71.3104 147.054 71.8991 147.306 72.4317C147.699 71.3104 148.091 70.0771 148.455 68.8157C148.82 67.5263 149.128 66.2929 149.437 65.0876H151.791V65.0596Z" fill="white"/>
    <path d="M159.581 66.6854C159.328 66.9657 158.992 67.3301 158.572 67.8066C158.151 68.2832 157.703 68.8157 157.254 69.4324C156.778 70.0211 156.301 70.6377 155.825 71.2825C155.348 71.9272 154.928 72.5438 154.535 73.1325H159.693V75.0666H151.732V73.637C152.012 73.1325 152.377 72.5719 152.797 71.9832C153.218 71.3946 153.638 70.7779 154.087 70.1893C154.535 69.5726 154.984 69.012 155.404 68.4513C155.853 67.8907 156.245 67.4142 156.581 67.0218H151.984V65.0876H159.581V66.6854Z" fill="white"/>
    <path d="M160 70.1055C160 69.2365 160.14 68.4517 160.392 67.807C160.645 67.1342 161.009 66.6016 161.43 66.1531C161.85 65.7046 162.355 65.3963 162.915 65.1721C163.476 64.9478 164.036 64.8357 164.625 64.8357C165.999 64.8357 167.064 65.2562 167.849 66.1251C168.605 66.966 168.998 68.2554 168.998 69.9373C168.998 70.0774 168.998 70.2176 168.998 70.3578C168.998 70.5259 168.97 70.6661 168.97 70.7782H162.383C162.439 71.5911 162.719 72.2078 163.224 72.6283C163.728 73.0767 164.457 73.301 165.41 73.301C165.971 73.301 166.475 73.2449 166.952 73.1608C167.428 73.0487 167.793 72.9366 168.045 72.8245L168.353 74.7025C168.213 74.7586 168.045 74.8427 167.821 74.8988C167.596 74.9828 167.344 75.0389 167.064 75.095C166.783 75.151 166.475 75.2071 166.139 75.2351C165.802 75.2632 165.466 75.2912 165.13 75.2912C164.261 75.2912 163.476 75.151 162.831 74.8988C162.186 74.6465 161.654 74.2821 161.233 73.8056C160.813 73.329 160.505 72.7964 160.308 72.1517C160.112 71.5351 160 70.8623 160 70.1055ZM166.699 69.0683C166.699 68.76 166.643 68.4517 166.559 68.1714C166.475 67.891 166.335 67.6388 166.167 67.4145C165.999 67.1903 165.774 67.0501 165.55 66.91C165.298 66.7978 165.018 66.7418 164.653 66.7418C164.289 66.7418 163.98 66.7978 163.728 66.938C163.448 67.0782 163.224 67.2463 163.055 67.4706C162.859 67.6948 162.719 67.9471 162.635 68.2274C162.523 68.5077 162.467 68.788 162.411 69.0964H166.699V69.0683Z" fill="white"/>
    <path d="M176.198 67.1339C176.002 67.0779 175.749 66.9938 175.413 66.9377C175.077 66.8536 174.684 66.8256 174.236 66.8256C173.983 66.8256 173.703 66.8536 173.423 66.9097C173.143 66.9657 172.946 66.9938 172.834 67.0498V75.0386H170.536V65.5081C170.984 65.34 171.545 65.1998 172.217 65.0316C172.89 64.8915 173.619 64.8074 174.432 64.8074C174.572 64.8074 174.768 64.8074 174.965 64.8354C175.161 64.8634 175.385 64.8915 175.581 64.9195C175.777 64.9475 175.974 65.0036 176.17 65.0316C176.366 65.0877 176.506 65.1157 176.618 65.1437L176.198 67.1339Z" fill="white"/>
    <path d="M107.299 33.8613H117.11C119.885 33.8613 122.296 34.3659 124.286 35.347C126.276 36.3561 127.818 37.7856 128.883 39.6917C129.948 41.5978 130.481 43.8683 130.481 46.5032C130.481 49.1661 129.948 51.4647 128.911 53.3427C127.874 55.2488 126.332 56.7064 124.342 57.7155C122.352 58.7247 119.941 59.2292 117.138 59.2292H107.327V33.8613H107.299ZM116.746 54.7723C122.183 54.7723 124.874 52.0253 124.874 46.5313C124.874 41.0933 122.155 38.3463 116.746 38.3463H112.849V54.7723H116.746Z" fill="white"/>
    <path d="M148.904 50.6797H136.991C137.075 52.3615 137.523 53.5949 138.308 54.3797C139.093 55.1646 140.27 55.529 141.812 55.529C142.737 55.529 143.662 55.3608 144.587 55.0525C145.512 54.7441 146.381 54.2956 147.166 53.707L148.595 57.351C147.726 58.0518 146.661 58.5843 145.4 58.9768C144.138 59.3692 142.849 59.5654 141.56 59.5654C138.504 59.5654 136.122 58.7245 134.384 57.0426C132.646 55.3608 131.777 53.0623 131.777 50.1751C131.777 48.3531 132.141 46.6993 132.898 45.2697C133.655 43.8401 134.692 42.7189 136.066 41.906C137.411 41.1211 138.953 40.7007 140.663 40.7007C143.213 40.7007 145.232 41.5416 146.689 43.1674C148.175 44.8212 148.904 47.0637 148.904 49.8668V50.6797ZM138.336 45.3818C137.719 45.9705 137.299 46.8394 137.103 47.9887H144.279C143.998 45.6621 142.849 44.4848 140.803 44.4848C139.794 44.4848 138.953 44.7932 138.336 45.3818Z" fill="white"/>
    <path d="M168.66 41.177V59.2849H163.334V56.622C162.774 57.547 162.017 58.2758 161.008 58.8084C159.999 59.341 158.877 59.5932 157.616 59.5932C156.046 59.5932 154.673 59.2008 153.467 58.444C152.262 57.6872 151.337 56.594 150.636 55.1644C149.964 53.7628 149.627 52.109 149.627 50.259C149.627 48.409 149.964 46.7551 150.636 45.2975C151.309 43.8399 152.262 42.7187 153.467 41.9338C154.673 41.149 156.074 40.7285 157.616 40.7285C158.877 40.7285 159.999 41.0088 161.008 41.5414C162.017 42.102 162.774 42.8308 163.334 43.7558V41.177H168.66ZM162.269 54.0992C162.97 53.2022 163.334 51.8848 163.334 50.1749C163.334 48.465 162.97 47.1476 162.269 46.2226C161.568 45.2975 160.531 44.849 159.186 44.849C157.84 44.849 156.831 45.3256 156.074 46.2786C155.345 47.2317 154.981 48.5491 154.981 50.231C154.981 51.9128 155.345 53.2022 156.074 54.0992C156.803 54.9962 157.84 55.4447 159.186 55.4447C160.531 55.4447 161.54 54.9962 162.269 54.0992Z" fill="white"/>
    <path d="M171.214 32.9922H176.596V59.2571H171.214V32.9922Z" fill="white"/>
    <path d="M28.872 59.9299V57.3791L25.4803 56.0056C24.6674 56.9306 23.4901 57.5193 22.1446 57.5193C21.9764 57.5193 21.8082 57.5193 21.612 57.4912C21.4719 57.4632 21.3597 57.4632 21.2476 57.4352L19.8461 59.117V75.3188H28.872V62.4527H28.844V59.9299H28.872Z" fill="white"/>
    <path d="M41.0938 63.2094L41.1499 63.3496C41.1499 63.2935 41.1218 63.2375 41.1218 63.1814L41.0938 63.2094Z" fill="white"/>
    <path d="M50.2866 61.8923L49.8661 62.0605C49.8661 62.1726 49.8941 62.3128 49.8941 62.4249C49.8941 64.8636 47.904 66.8538 45.4653 66.8538C43.8395 66.8538 42.4099 65.9568 41.6251 64.6393L45.7176 75.3191H55.5003L50.3987 62.2007C50.3707 62.0885 50.3426 61.9764 50.2866 61.8923Z" fill="white"/>
    <path d="M5.242 71.2263C5.3261 71.2543 5.43822 71.2543 5.52231 71.2824L10.0072 65.9285L5.242 71.2263Z" fill="white"/>
    <path d="M52.6145 0L4.4295 27.8346V70.3573H4.48557C4.73784 70.3573 4.99012 70.3854 5.2424 70.4134L13.9319 60.014V33.3006L52.6145 10.96L91.297 33.3006V61.1632H100.799V27.8066L52.6145 0Z" fill="white"/>
    <path d="M21.5289 47.9327C21.7252 47.9047 21.9214 47.9047 22.1456 47.9047C24.7805 47.9047 26.9949 49.9229 27.3313 52.5017L42.1035 58.4723C43.0566 57.6594 44.2339 57.2389 45.4672 57.2389C45.9998 57.2389 46.5324 57.323 47.0089 57.4632C47.2052 57.5192 47.4014 57.6314 47.5976 57.7155C51.2416 55.3048 53.6522 51.1843 53.6522 46.5031C53.6522 39.103 47.6256 33.0483 40.1975 33.0483H28.873H21.6411H19.8751V48.4373C20.3797 48.185 20.9403 48.0168 21.5289 47.9327ZM28.873 41.1212H29.5738H34.0026H39.9171C42.8884 41.1212 45.271 43.5319 45.271 46.4751C45.271 49.4464 42.8604 51.829 39.9171 51.829H35.4883H31.0314H28.873V41.1212Z" fill="white"/>
    <path d="M63.6301 48.7735C61.5838 48.7735 59.8179 49.8948 58.8928 51.5766C58.4724 52.3615 58.2201 53.2304 58.2201 54.1835C58.2201 54.4638 58.2481 54.7161 58.2762 54.9684L48.4934 59.201C48.0169 58.7525 47.4282 58.4161 46.8116 58.2199C46.3911 58.0798 45.9426 58.0237 45.4941 58.0237C44.2327 58.0237 43.1115 58.5563 42.2986 59.3972L36.7765 57.1548L34.0295 56.0335L30.9742 54.8002L28.8999 53.9592L26.6014 53.0342C26.5453 50.6236 24.5831 48.6895 22.1725 48.6895C22.0043 48.6895 21.8361 48.6895 21.6399 48.7175C20.9952 48.8016 20.4065 48.9978 19.874 49.3342C18.6126 50.119 17.7436 51.5206 17.7436 53.1183C17.7436 54.0994 18.052 54.9684 18.5845 55.6972L13.9314 61.2473L5.55022 71.2823C5.18582 71.1982 4.82142 71.1421 4.42899 71.1421C1.99031 71.1421 0.00012207 73.1323 0.00012207 75.571C0.00012207 78.0097 1.99031 79.9999 4.42899 79.9999C6.86767 79.9999 8.85786 78.0097 8.85786 75.571C8.85786 74.674 8.60558 73.8611 8.12906 73.1603L19.874 59.1169L21.2755 57.4351C21.3876 57.4631 21.5278 57.4911 21.6399 57.4911C21.8081 57.5192 21.9763 57.5192 22.1725 57.5192C23.4899 57.5192 24.6953 56.9305 25.5082 56.0055L28.8719 57.379L35.1788 59.9298L40.841 62.2283L41.0653 62.3124C41.0653 62.3405 41.0653 62.3965 41.0653 62.4245C41.0653 62.6768 41.0933 62.9291 41.1213 63.1814C41.1213 63.2374 41.1493 63.2935 41.1493 63.3496C41.2334 63.7981 41.4297 64.2465 41.6539 64.639C42.4107 65.9564 43.8403 66.8534 45.4941 66.8534C47.9328 66.8534 49.923 64.8632 49.923 62.4245C49.923 62.2844 49.923 62.1723 49.895 62.0601L50.3154 61.892L58.9209 58.1639L59.6777 57.8275C60.6588 58.8927 62.0603 59.5654 63.6301 59.5654C66.6013 59.5654 69.012 57.1548 69.012 54.1835C69.012 51.2122 66.6013 48.7735 63.6301 48.7735ZM5.41007 76.2998C5.18582 76.6081 4.82142 76.8324 4.40096 76.8324C3.70019 76.8324 3.13957 76.2718 3.13957 75.571C3.13957 75.2346 3.27973 74.9263 3.50397 74.702C3.72822 74.4778 4.03656 74.3096 4.40096 74.3096C4.62521 74.3096 4.84945 74.3937 5.04567 74.5058C5.41007 74.7301 5.63431 75.1225 5.63431 75.571C5.66234 75.8513 5.57825 76.0756 5.41007 76.2998ZM22.1445 54.3797C21.9482 54.3797 21.7801 54.3236 21.6119 54.2676C21.1914 54.0714 20.8831 53.6509 20.8831 53.1463C20.8831 53.0623 20.8831 53.0062 20.9111 52.9221C20.9952 52.5016 21.2475 52.1653 21.6119 51.9971C21.6399 51.9691 21.6679 51.9691 21.696 51.9691C21.8361 51.913 21.9763 51.885 22.1164 51.885C22.8172 51.885 23.3778 52.4456 23.3778 53.1463C23.4058 53.8191 22.8452 54.3797 22.1445 54.3797ZM45.4661 63.6859C44.7653 63.6859 44.2047 63.1253 44.2047 62.4245C44.2047 62.2003 44.2608 61.9761 44.3729 61.8079C44.5971 61.4435 44.9896 61.1632 45.4661 61.1632C45.5502 61.1632 45.6062 61.1632 45.6903 61.1912C46.279 61.3033 46.7275 61.8079 46.7275 62.4245C46.7275 63.1253 46.1669 63.6859 45.4661 63.6859ZM63.6301 56.3979C63.4619 56.3979 63.2937 56.3699 63.1255 56.3419C62.1444 56.1176 61.4156 55.2206 61.4156 54.1835C61.4156 53.9873 61.4436 53.7911 61.4997 53.5948C61.752 52.6418 62.6209 51.9691 63.6301 51.9691C64.8634 51.9691 65.8445 52.9782 65.8445 54.1835C65.8445 55.3888 64.8634 56.3979 63.6301 56.3979Z" fill="white"/>
    <path d="M86.8064 57.4351V50.2031H69.4553C70.2402 51.3244 70.6887 52.6979 70.6887 54.1835C70.6887 55.3608 70.4084 56.482 69.8758 57.4351H86.8064Z" fill="white"/>
    <path d="M67.9165 59.7616C66.7392 60.6866 65.2536 61.2192 63.6278 61.2192C61.8058 61.2192 60.124 60.5184 58.8906 59.3691V75.3187H88.0427V68.1428H67.9165V59.7616Z" fill="white"/>
    <path d="M58.9196 33.0483V48.9979C60.181 47.8486 61.8348 47.1478 63.6568 47.1478C65.2826 47.1478 66.7402 47.7085 67.9455 48.6054V40.2242H88.0717V33.0483H58.9196Z" fill="white"/>
    <path d="M96.4516 63.9941C92.8917 63.9941 90.0045 66.8813 90.0045 70.4412C90.0045 74.0011 92.8917 76.8883 96.4516 76.8883C100.012 76.8883 102.899 74.0011 102.899 70.4412C102.899 66.8533 100.012 63.9941 96.4516 63.9941ZM96.4516 72.7958C95.1342 72.7958 94.069 71.7306 94.069 70.4132C94.069 69.0957 95.1342 68.0306 96.4516 68.0306C97.7691 68.0306 98.8342 69.0957 98.8342 70.4132C98.8342 71.7306 97.7691 72.7958 96.4516 72.7958Z" fill="white"/>
  </g>
</svg>