<svg xmlns="http://www.w3.org/2000/svg" width="219" height="41" viewBox="0 0 219 41" fill="none">
  <circle opacity="0.2" cx="20.0001" cy="20.002" r="20" fill="#8F98A5"/>
  <path d="M22.9157 14.8015H24.3826V12.2869C24.1295 12.2526 23.2591 12.1755 22.2455 12.1755C20.1305 12.1755 18.6817 13.4849 18.6817 15.8915V18.1062H16.3478V20.9174H18.6817V27.9908H21.5432V20.9181H23.7827L24.1382 18.1069H21.5425V16.1702C21.5432 15.3577 21.7655 14.8015 22.9157 14.8015Z" fill="white"/>
  <circle opacity="0.2" cx="80.3781" cy="20.002" r="20" fill="#8F98A5"/>
  <path d="M89.9334 14.0473C89.1979 14.3648 88.4142 14.5752 87.5971 14.6774C88.4377 14.1835 89.0792 13.4074 89.3808 12.4719C88.5971 12.9317 87.7319 13.2565 86.8097 13.4378C86.0656 12.658 85.005 12.175 83.848 12.175C81.6032 12.175 79.796 13.9682 79.796 16.1664C79.796 16.4827 79.8232 16.7868 79.8899 17.0764C76.519 16.9146 73.5362 15.3246 71.5325 12.9025C71.1827 13.4998 70.9775 14.1835 70.9775 14.9195C70.9775 16.3014 71.7006 17.5265 72.7785 18.2357C72.1271 18.2235 71.488 18.0374 70.9466 17.7442C70.9466 17.7564 70.9466 17.7722 70.9466 17.788C70.9466 19.7271 72.352 21.3378 74.1951 21.7088C73.8651 21.7976 73.5053 21.8402 73.132 21.8402C72.8725 21.8402 72.6104 21.8256 72.3644 21.7721C72.8898 23.3523 74.3805 24.5141 76.1531 24.5518C74.7736 25.6138 73.022 26.2537 71.1258 26.2537C70.7933 26.2537 70.4744 26.2391 70.1555 26.1989C71.9515 27.3388 74.0801 27.9896 76.3756 27.9896C83.8368 27.9896 87.916 21.9071 87.916 16.6348C87.916 16.4584 87.9099 16.2881 87.9012 16.119C88.7059 15.5569 89.3821 14.855 89.9334 14.0473Z" fill="white"/>
  <circle opacity="0.2" cx="140.261" cy="20.002" r="20" fill="#8F98A5"/>
  <path d="M135.819 15.2515H132.225V26.2993H135.819V15.2515Z" fill="white"/>
  <path d="M145.607 15.381C145.569 15.369 145.533 15.3559 145.492 15.3449C145.444 15.3338 145.396 15.3248 145.347 15.3167C145.156 15.2786 144.947 15.2515 144.702 15.2515C142.607 15.2515 141.278 16.7751 140.84 17.3636V15.2515H137.247V26.2993H140.84V20.2732C140.84 20.2732 143.556 16.4908 144.702 19.2689C144.702 21.7486 144.702 26.2993 144.702 26.2993H148.295V18.844C148.295 17.1748 147.151 15.7838 145.607 15.381Z" fill="white"/>
  <path d="M133.983 13.745C134.953 13.745 135.74 12.958 135.74 11.9873C135.74 11.0166 134.953 10.2297 133.983 10.2297C133.012 10.2297 132.225 11.0166 132.225 11.9873C132.225 12.958 133.012 13.745 133.983 13.745Z" fill="white"/>
  <circle opacity="0.2" cx="198.992" cy="20.002" r="20" fill="#8F98A5"/>
  <path d="M199.52 16.4675C197.923 16.4675 196.62 17.7706 196.62 19.3673C196.62 20.964 197.923 22.2671 199.52 22.2671C201.116 22.2671 202.419 20.964 202.419 19.3673C202.419 17.7706 201.116 16.4675 199.52 16.4675ZM208.217 19.3673C208.217 18.1665 208.228 16.9765 208.16 15.7779C208.093 14.3857 207.775 13.15 206.757 12.132C205.737 11.1117 204.503 10.7963 203.111 10.7288C201.91 10.6614 200.72 10.6723 199.522 10.6723C198.321 10.6723 197.131 10.6614 195.932 10.7288C194.54 10.7963 193.305 11.1139 192.286 12.132C191.266 13.1522 190.951 14.3857 190.883 15.7779C190.816 16.9787 190.827 18.1686 190.827 19.3673C190.827 20.5659 190.816 21.758 190.883 22.9567C190.951 24.3489 191.268 25.5845 192.286 26.6026C193.307 27.6229 194.54 27.9383 195.932 28.0057C197.133 28.0732 198.323 28.0623 199.522 28.0623C200.723 28.0623 201.913 28.0732 203.111 28.0057C204.503 27.9383 205.739 27.6207 206.757 26.6026C207.777 25.5824 208.093 24.3489 208.16 22.9567C208.23 21.758 208.217 20.5681 208.217 19.3673ZM199.52 23.829C197.051 23.829 195.058 21.8363 195.058 19.3673C195.058 16.8982 197.051 14.9056 199.52 14.9056C201.989 14.9056 203.981 16.8982 203.981 19.3673C203.981 21.8363 201.989 23.829 199.52 23.829ZM204.164 15.7648C203.588 15.7648 203.122 15.2993 203.122 14.7228C203.122 14.1464 203.588 13.6808 204.164 13.6808C204.741 13.6808 205.206 14.1464 205.206 14.7228C205.206 14.8597 205.179 14.9953 205.127 15.1218C205.075 15.2483 204.998 15.3632 204.901 15.46C204.804 15.5568 204.689 15.6336 204.563 15.6859C204.436 15.7382 204.301 15.765 204.164 15.7648Z" fill="white"/>
</svg>