<svg xmlns="http://www.w3.org/2000/svg" width="171" height="68" viewBox="0 0 171 68" fill="none">
  <line opacity="0.05" x1="2.49988" y1="0.719482" x2="2.49988" y2="59" stroke="#03191A" stroke-dasharray="6 6"/>
  <line opacity="0.05" x1="1.99988" y1="58.5" x2="159.573" y2="58.5" stroke="#03191A" stroke-dasharray="6 6"/>
  <path d="M139.792 15.4119C148.862 10.9625 157.931 9.35838 167 9.35838V68H3.99988V26.9017C13.069 39.6565 22.1382 22.0149 31.2074 22.0149C40.2766 22.0149 49.3457 29.8829 58.4149 29.8829C67.4841 29.8829 76.5533 17.1281 85.6224 10.6023C94.6916 4.07654 103.516 4.07654 112.585 6.44954C121.654 8.52592 130.723 19.5646 139.792 15.4119Z" fill="url(#paint0_linear_1_751)"/>
  <g filter="url(#filter0_d_1_751)">
    <path d="M167 9.44965C157.931 9.44965 148.862 10.7193 139.792 14.241C130.723 17.5279 121.654 8.79076 112.585 7.14731C103.516 5.26908 94.6916 5.26908 85.6224 10.4342C76.5533 15.5993 67.4841 25.6948 58.4149 25.6948C49.3457 25.6948 40.2766 19.4672 31.2074 19.4672C22.1382 19.4672 13.0691 33.4306 3.99988 23.3351" stroke="#01B574" stroke-width="1.5" stroke-linecap="round"/>
  </g>
  <defs>
    <filter id="filter0_d_1_751" x="0.249878" y="4.25" width="170.5" height="28.5" filterUnits="userSpaceOnUse" color-interpolation-filters="sRGB">
      <feFlood flood-opacity="0" result="BackgroundImageFix"/>
      <feColorMatrix in="SourceAlpha" type="matrix" values="0 0 0 0 0 0 0 0 0 0 0 0 0 0 0 0 0 0 127 0" result="hardAlpha"/>
      <feOffset dy="2"/>
      <feGaussianBlur stdDeviation="1.5"/>
      <feComposite in2="hardAlpha" operator="out"/>
      <feColorMatrix type="matrix" values="0 0 0 0 0.0392157 0 0 0 0 0.513726 0 0 0 0 0.74902 0 0 0 0.35 0"/>
      <feBlend mode="normal" in2="BackgroundImageFix" result="effect1_dropShadow_1_751"/>
      <feBlend mode="normal" in="SourceGraphic" in2="effect1_dropShadow_1_751" result="shape"/>
    </filter>
    <linearGradient id="paint0_linear_1_751" x1="85.4999" y1="5" x2="85.4999" y2="68" gradientUnits="userSpaceOnUse">
      <stop stop-color="#01B574" stop-opacity="0.14"/>
      <stop offset="1" stop-color="#01B574" stop-opacity="0"/>
    </linearGradient>
  </defs>
</svg>