<svg xmlns="http://www.w3.org/2000/svg" width="64" height="61" viewBox="0 0 64 61" fill="none">
  <path d="M57.6707 20.7678V59.9604H6.76288V20.7678" stroke="#C292D6" stroke-width="2" stroke-linecap="round" stroke-linejoin="round"/>
  <path d="M2.76627 23.7336L32.2181 1.04053L61.6699 23.7336" stroke="#C292D6" stroke-width="2" stroke-linecap="round" stroke-linejoin="round"/>
  <path d="M1.46222 59.9606H62.971" stroke="#C292D6" stroke-width="2" stroke-linecap="round" stroke-linejoin="round"/>
  <path d="M30.2914 32.6224H13.5788V59.9606H30.2914V32.6224Z" stroke="#C292D6" stroke-width="2" stroke-linecap="round" stroke-linejoin="round"/>
  <path d="M51.2182 32.6224H37.2173V46.6233H51.2182V32.6224Z" stroke="#C292D6" stroke-width="2" stroke-linecap="round" stroke-linejoin="round"/>
  <path d="M44.2119 32.6224V46.6233" stroke="#C292D6" stroke-width="2" stroke-linecap="round" stroke-linejoin="round"/>
  <path d="M37.2173 39.627H51.2182" stroke="#C292D6" stroke-width="2" stroke-linecap="round" stroke-linejoin="round"/>
  <path d="M27.4009 44.5999V47.9915" stroke="#C292D6" stroke-width="2" stroke-linecap="round" stroke-linejoin="round"/>
  <path d="M32.2173 21.8249C34.2578 21.8249 35.9121 20.1707 35.9121 18.1301C35.9121 16.0895 34.2578 14.4353 32.2173 14.4353C30.1767 14.4353 28.5225 16.0895 28.5225 18.1301C28.5225 20.1707 30.1767 21.8249 32.2173 21.8249Z" stroke="#C292D6" stroke-width="2" stroke-linecap="round" stroke-linejoin="round"/>
</svg>