<svg xmlns="http://www.w3.org/2000/svg" width="71" height="56" viewBox="0 0 71 56" fill="none">
  <path d="M17.2141 54.9805H6.67691V14.0634" stroke="#FF9190" stroke-width="2" stroke-linecap="round" stroke-linejoin="round"/>
  <path d="M65.4467 14.0634V54.9805H53.8802" stroke="#FF9190" stroke-width="2" stroke-linecap="round" stroke-linejoin="round"/>
  <path d="M2.39108 15.2951L36.0612 1.02051L69.7399 15.2951" stroke="#FF9190" stroke-width="2" stroke-linecap="round" stroke-linejoin="round"/>
  <path d="M16.6909 54.9805H14.4889V17.2523H57.6333V54.9805H54.4359" stroke="#FF9190" stroke-width="2" stroke-linecap="round" stroke-linejoin="round"/>
  <path d="M11.0814 17.2523H61.0425" stroke="#FF9190" stroke-width="2" stroke-linecap="round" stroke-linejoin="round"/>
  <path d="M14.4889 20.6608H57.6333" stroke="#FF9190" stroke-width="2" stroke-linecap="round" stroke-linejoin="round"/>
  <path d="M14.4889 24.0775H57.6333" stroke="#FF9190" stroke-width="2" stroke-linecap="round" stroke-linejoin="round"/>
  <path d="M29.808 44.1818H18.2752V54.9805H29.808V44.1818Z" stroke="#FF9190" stroke-width="2" stroke-linecap="round" stroke-linejoin="round"/>
  <path d="M23.0834 46.6621H25.0069" stroke="#FF9190" stroke-width="2" stroke-linecap="round" stroke-linejoin="round"/>
  <path d="M41.3421 44.1818H29.8093V54.9805H41.3421V44.1818Z" stroke="#FF9190" stroke-width="2" stroke-linecap="round" stroke-linejoin="round"/>
  <path d="M34.6175 46.6621H36.541" stroke="#FF9190" stroke-width="2" stroke-linecap="round" stroke-linejoin="round"/>
  <path d="M52.8828 44.1818H41.3501V54.9805H52.8828V44.1818Z" stroke="#FF9190" stroke-width="2" stroke-linecap="round" stroke-linejoin="round"/>
  <path d="M46.1583 46.6621H48.0734" stroke="#FF9190" stroke-width="2" stroke-linecap="round" stroke-linejoin="round"/>
  <path d="M36.0352 33.3829H24.5024V44.1817H36.0352V33.3829Z" stroke="#FF9190" stroke-width="2" stroke-linecap="round" stroke-linejoin="round"/>
  <path d="M29.3106 35.8633H31.2257" stroke="#FF9190" stroke-width="2" stroke-linecap="round" stroke-linejoin="round"/>
  <path d="M47.5692 33.3829H36.0365V44.1817H47.5692V33.3829Z" stroke="#FF9190" stroke-width="2" stroke-linecap="round" stroke-linejoin="round"/>
  <path d="M40.8447 35.8633H42.7598" stroke="#FF9190" stroke-width="2" stroke-linecap="round" stroke-linejoin="round"/>
  <path d="M1.64136 54.9805H68.7792" stroke="#FF9190" stroke-width="2" stroke-linecap="round" stroke-linejoin="round"/>
</svg>