<svg xmlns="http://www.w3.org/2000/svg" width="155" height="60" viewBox="0 0 155 60" fill="none">
  <circle opacity="0.2" cx="33" cy="30" r="29" stroke="black" stroke-width="2"/>
  <path opacity='0.5' d="M33.9868 19.4549C34.231 19.2217 34.5585 19.0908 34.9098 19.0908C35.2612 19.0908 35.5827 19.2217 35.8269 19.4549L36.607 20.2002C37.1131 20.6838 37.1131 21.4745 36.607 21.9581L27.7103 30.4633L36.6189 38.9742C36.863 39.2074 37 39.5203 37 39.856C37 40.1916 36.863 40.5045 36.6189 40.7378L35.8388 41.4831C35.5946 41.7163 35.2671 41.8472 34.9158 41.8472C34.5644 41.8472 34.2369 41.7163 33.9928 41.4831L23.3811 31.3508C23.137 31.1175 23 30.799 23 30.469C23 30.1333 23.137 29.8204 23.3811 29.5872L33.9868 19.4549Z" fill="black"/>
</svg>