<svg xmlns="http://www.w3.org/2000/svg" width="112" height="38" viewBox="0 0 112 38" fill="none">
  <path d="M22.4029 6.36438L0 28.7673H11.2014L13.9982 25.9706H33.6043L27.9964 20.377H19.6061L28.0108 11.9723L22.4029 6.36438Z" fill="#B7BAC7"/>
  <path d="M22.4034 6.36438L16.8099 11.9579L33.6049 28.7528H44.8063L22.4034 6.36438Z" fill="#B7BAC7"/>
  <path d="M61.6 0.770752L50.3986 11.9722L44.8051 6.37867H33.6036L44.8051 17.5801L25.1412 37.2294H36.3427L50.3986 23.1736L55.9921 28.7671H67.1936L55.9921 17.5657L72.8015 0.770752H61.6Z" fill="#B7BAC7"/>
  <path d="M78.4101 6.36438L56.0072 28.7673H67.2087L78.4101 17.5658L89.6116 28.7673L112 6.36438H100.799L89.5972 17.5658L78.4101 6.36438Z" fill="#B7BAC7"/>
  <path d="M70.0049 28.7671H86.7998L78.4096 20.3768L70.0049 28.7671Z" fill="#B7BAC7"/>
  <path d="M81.2079 28.7671H86.8014L78.4112 20.3768L81.2079 28.7671Z" fill="#B7BAC7"/>
</svg>