<svg xmlns="http://www.w3.org/2000/svg" width="113" height="30" viewBox="0 0 113 30" fill="none">
  <path fill-rule="evenodd" clip-rule="evenodd" d="M36.4974 23.1581L37.8952 19.9101C39.4049 21.039 41.4164 21.6259 43.4011 21.6259C44.866 21.6259 45.7934 21.0614 45.7934 20.2058C45.771 17.8135 37.0171 19.6861 36.9499 13.6874C36.9275 10.641 39.6334 8.29347 43.4683 8.29347C45.7486 8.29347 48.0244 8.85794 49.6507 10.1437L48.3425 13.4589C46.8552 12.5091 45.0049 11.8327 43.2443 11.8327C42.0481 11.8327 41.2596 12.3971 41.2596 13.1184C41.282 15.4659 50.1032 14.1802 50.1928 19.9101C50.1928 23.0237 47.554 25.2144 43.764 25.2144C40.9864 25.2099 38.4372 24.5558 36.4974 23.1581ZM90.1723 18.7363C89.4734 19.9549 88.1652 20.7882 86.651 20.7882C84.4155 20.7882 82.6145 18.9827 82.6145 16.7517C82.6145 14.5207 84.42 12.7152 86.651 12.7152C88.1608 12.7152 89.4734 13.5485 90.1723 14.7671L94.0296 12.6256C92.587 10.0541 89.8094 8.29347 86.651 8.29347C81.9784 8.29347 78.1883 12.0835 78.1883 16.7562C78.1883 21.4288 81.9784 25.2189 86.651 25.2189C89.8318 25.2189 92.587 23.4806 94.0296 20.8867L90.1723 18.7363ZM52.1326 1.27332H56.962V24.8963H52.1326V1.27332ZM95.9246 1.27332V24.8963H100.754V17.809L106.484 24.8963H112.666L105.377 16.4784L112.124 8.62498H106.211L100.75 15.1434V1.27332H95.9246Z" fill="black"/>
  <path d="M71.3108 18.7811C70.612 19.9324 69.1694 20.7881 67.5432 20.7881C65.3076 20.7881 63.5067 18.9827 63.5067 16.7516C63.5067 14.5206 65.3121 12.7152 67.5432 12.7152C69.1694 12.7152 70.612 13.6157 71.3108 14.7894V18.7811ZM71.3108 8.62942V10.5469C70.5224 9.2163 68.5601 8.28894 66.5038 8.28894C62.2612 8.28894 58.9236 12.0342 58.9236 16.7292C58.9236 21.4243 62.2612 25.2144 66.5038 25.2144C68.5556 25.2144 70.5179 24.2915 71.3108 22.9564V24.8739H76.1403V8.62942H71.3108Z" fill="black"/>
  <path fill-rule="evenodd" clip-rule="evenodd" d="M6.64669 18.7589C6.64669 20.4075 5.31613 21.7381 3.66749 21.7381C2.01885 21.7381 0.688293 20.403 0.688293 18.7589C0.688293 17.1147 2.01885 15.7797 3.66749 15.7797H6.64669V18.7589ZM8.13405 18.7589C8.13405 17.1102 9.46461 15.7797 11.1133 15.7797C12.7619 15.7797 14.0925 17.1102 14.0925 18.7589V26.2046C14.0925 27.8533 12.7619 29.1839 11.1133 29.1839C9.46461 29.1839 8.13405 27.8533 8.13405 26.2046V18.7589Z" fill="#E01E5A"/>
  <path fill-rule="evenodd" clip-rule="evenodd" d="M11.1134 6.80168C9.46474 6.80168 8.13418 5.47111 8.13418 3.82247C8.13418 2.17383 9.46474 0.843262 11.1134 0.843262C12.762 0.843262 14.0926 2.17383 14.0926 3.82247V6.80168H11.1134ZM11.1134 8.31144C12.762 8.31144 14.0926 9.642 14.0926 11.2906C14.0926 12.9393 12.762 14.2699 11.1134 14.2699H3.64522C1.99658 14.2699 0.666016 12.9348 0.666016 11.2906C0.666016 9.64648 1.99658 8.31144 3.64522 8.31144H11.1134Z" fill="#36C5F0"/>
  <path fill-rule="evenodd" clip-rule="evenodd" d="M23.0468 11.2906C23.0468 9.64201 24.3774 8.31144 26.026 8.31144C27.6746 8.31144 29.0052 9.64201 29.0052 11.2906C29.0052 12.9393 27.6746 14.2699 26.026 14.2699H23.0468V11.2906ZM21.5595 11.2906C21.5595 12.9393 20.2289 14.2699 18.5803 14.2699C16.9316 14.2699 15.6011 12.9393 15.6011 11.2906V3.82247C15.6011 2.17383 16.9316 0.843262 18.5803 0.843262C20.2289 0.843262 21.5595 2.17383 21.5595 3.82247V11.2906Z" fill="#2EB67D"/>
  <path fill-rule="evenodd" clip-rule="evenodd" d="M18.5803 23.2254C20.2289 23.2254 21.5595 24.556 21.5595 26.2046C21.5595 27.8533 20.2289 29.1839 18.5803 29.1839C16.9316 29.1839 15.6011 27.8533 15.6011 26.2046V23.2254H18.5803ZM18.5803 21.7381C16.9316 21.7381 15.6011 20.4075 15.6011 18.7589C15.6011 17.1102 16.9316 15.7797 18.5803 15.7797H26.0484C27.697 15.7797 29.0276 17.1102 29.0276 18.7589C29.0276 20.4075 27.697 21.7381 26.0484 21.7381H18.5803Z" fill="#ECB22E"/>
</svg>