<svg xmlns="http://www.w3.org/2000/svg" width="113" height="24" viewBox="0 0 113 24" fill="none">
  <path d="M47.276 5.37725C45.2537 5.37725 42.9537 6.31466 41.5484 8.19151L41.5493 8.18789L41.5484 8.1888L41.5493 5.67185H36.7258V23.2373H41.5484V13.2424C41.5484 11.4436 42.9431 9.53121 45.5256 9.53121C47.5213 9.53121 49.5866 10.9196 49.5866 13.2424V23.2373H54.4101V12.3486C54.4101 8.30849 51.5196 5.37725 47.276 5.37725ZM88.6918 5.67275L84.3313 17.6378L79.9707 5.67275H74.4608L81.6881 23.2326H86.9736L94.2008 5.67275H88.6918ZM22.326 10.9644C23.1474 9.86133 24.4558 9.21377 26.0361 9.21377C27.7742 9.21377 29.0929 10.2064 29.7746 11.6717L21.3477 15.1679C21.1176 13.3736 21.5767 11.9703 22.326 10.9644ZM31.5926 17.8369C29.5626 19.3393 28.4028 19.6977 26.5515 19.6977C24.8855 19.6977 23.5811 19.1804 22.6616 18.2733L34.9929 13.1578C34.7236 11.2515 34.0001 9.54841 32.8868 8.25351C31.2666 6.37191 28.8684 5.37635 25.9485 5.37635C20.6449 5.37635 16.6457 9.28889 16.6457 14.4567C16.6457 19.7585 20.6544 23.536 26.4802 23.536C29.7443 23.536 33.0817 21.989 34.6429 20.1816L31.5926 17.8369ZM16.1859 18.8084H5.22329V0.418701H0.333984V23.2373H16.1859V18.8084ZM102.862 9.50972C100.168 9.50972 98.2123 11.5511 98.2123 14.4549C98.2123 17.2275 100.284 19.4001 102.927 19.4001C105.621 19.4001 107.576 17.3027 107.576 14.4549C107.576 11.6823 105.505 9.50972 102.862 9.50972ZM102.862 23.5335C97.5869 23.5335 93.4535 19.6035 93.4535 14.4549C93.4535 9.36401 97.6154 5.37635 102.927 5.37635C108.202 5.37635 112.334 9.30608 112.334 14.4549C112.334 19.5447 108.173 23.5333 102.862 23.5333V23.5335ZM65.7257 9.50972C63.032 9.50972 61.0771 11.5511 61.0771 14.4549C61.0771 17.2275 63.1481 19.4001 65.7913 19.4001C68.485 19.4001 70.4399 17.3027 70.4399 14.4549C70.4399 11.6823 68.3689 9.50972 65.7257 9.50972ZM65.7257 23.5335C60.4506 23.5335 56.3184 19.6035 56.3184 14.4549C56.3184 9.36401 60.4791 5.37635 65.7913 5.37635C71.0655 5.37635 75.1986 9.30608 75.1986 14.4549C75.1986 19.5447 71.037 23.5333 65.7257 23.5333" fill="#B7BAC7"/>
</svg>