<svg xmlns="http://www.w3.org/2000/svg" width="155" height="70" viewBox="0 0 155 70" fill="none">
  <path d="M101.714 65.6588C101.567 65.1928 101.395 64.7513 101.223 64.3098C101.052 63.8683 100.904 63.4023 100.733 62.9363H95.8273C95.6802 63.4023 95.5085 63.8683 95.3613 64.3098C95.1896 64.7513 95.0425 65.2173 94.8953 65.6588H92.7124C93.1539 64.4324 93.5708 63.2797 93.9388 62.225C94.3312 61.1703 94.6991 60.1893 95.0915 59.2572C95.4594 58.3252 95.8273 57.4177 96.1952 56.5838C96.5631 55.7253 96.931 54.8914 97.3235 54.082H99.3347C99.7271 54.916 100.095 55.7499 100.463 56.5838C100.831 57.4422 101.199 58.3252 101.567 59.2572C101.935 60.1893 102.327 61.1949 102.719 62.225C103.112 63.2797 103.529 64.4079 103.97 65.6588H101.714ZM98.28 56.314C98.0348 56.9026 97.7404 57.6139 97.3971 58.4724C97.0782 59.3308 96.7348 60.2383 96.3669 61.2439H100.169C99.8007 60.2628 99.4573 59.3308 99.1385 58.4724C98.8196 57.6139 98.5253 56.8781 98.28 56.314Z" fill="#2C2C2C"/>
  <path d="M104.51 57.197C104.902 57.0743 105.417 56.9762 106.03 56.8781C106.643 56.78 107.355 56.731 108.115 56.731C108.826 56.731 109.415 56.8291 109.905 57.0253C110.396 57.2215 110.764 57.4913 111.058 57.8347C111.353 58.1781 111.549 58.6195 111.671 59.1101C111.794 59.6006 111.843 60.1402 111.843 60.7289V65.6343H109.807V61.0232C109.807 60.5572 109.783 60.1647 109.709 59.8214C109.66 59.5025 109.538 59.2327 109.415 59.012C109.268 58.8158 109.096 58.6441 108.851 58.5705C108.606 58.4724 108.311 58.4233 107.968 58.4233C107.723 58.4233 107.453 58.4479 107.158 58.4724C106.864 58.4969 106.668 58.546 106.545 58.546V65.6588H104.534V57.197H104.51Z" fill="#2C2C2C"/>
  <path d="M116.357 56.7065C117.02 56.7065 117.584 56.7801 118.05 56.9518C118.516 57.1235 118.884 57.3442 119.153 57.6631C119.423 57.9574 119.619 58.3253 119.742 58.7668C119.865 59.2083 119.914 59.6743 119.914 60.1894V65.4872C119.595 65.5608 119.129 65.6344 118.491 65.7325C117.853 65.8306 117.142 65.8797 116.357 65.8797C115.842 65.8797 115.352 65.8306 114.91 65.7325C114.469 65.6344 114.101 65.4627 113.807 65.2419C113.488 65.0212 113.267 64.7269 113.095 64.3835C112.924 64.0401 112.825 63.5741 112.825 63.059C112.825 62.5685 112.924 62.127 113.12 61.7836C113.316 61.4403 113.586 61.1459 113.905 60.9497C114.248 60.729 114.616 60.5818 115.057 60.4837C115.499 60.3856 115.965 60.3365 116.431 60.3365C116.652 60.3365 116.897 60.3611 117.142 60.3856C117.387 60.4101 117.657 60.4592 117.927 60.5328V60.1894C117.927 59.9441 117.903 59.7234 117.853 59.5272C117.804 59.3064 117.706 59.1347 117.559 58.963C117.412 58.7913 117.24 58.6687 117.02 58.5951C116.799 58.497 116.504 58.4725 116.161 58.4725C115.695 58.4725 115.254 58.497 114.861 58.5706C114.469 58.6442 114.15 58.7178 113.905 58.8159L113.659 57.1726C113.905 57.0744 114.297 57.0009 114.788 56.9028C115.278 56.7556 115.793 56.7065 116.357 56.7065ZM116.529 64.2363C117.142 64.2363 117.633 64.2118 117.952 64.1382V61.9063C117.829 61.8817 117.682 61.8327 117.461 61.8082C117.24 61.7836 117.02 61.7591 116.75 61.7591C116.529 61.7591 116.308 61.7836 116.063 61.8082C115.842 61.8327 115.622 61.9063 115.45 62.0044C115.278 62.1025 115.106 62.2251 115.008 62.3723C114.886 62.544 114.837 62.7402 114.837 62.9855C114.837 63.476 114.984 63.7949 115.278 63.9911C115.597 64.1628 116.014 64.2363 116.529 64.2363Z" fill="#2C2C2C"/>
  <path d="M124.574 65.8305C123.96 65.8305 123.47 65.7569 123.077 65.6342C122.685 65.5116 122.366 65.3399 122.121 65.1192C121.876 64.8984 121.728 64.6041 121.63 64.2607C121.532 63.9173 121.483 63.5249 121.483 63.108V53.0519L123.494 52.7085V62.7155C123.494 62.9608 123.519 63.157 123.543 63.3287C123.592 63.5004 123.642 63.6476 123.764 63.7457C123.862 63.8683 124.009 63.9419 124.181 64.0155C124.353 64.089 124.574 64.1136 124.843 64.1626L124.574 65.8305Z" fill="#2C2C2C"/>
  <path d="M132.813 56.9272C131.905 60.2384 130.875 63.2552 129.673 65.9532C129.452 66.4437 129.232 66.8852 128.986 67.2531C128.741 67.621 128.496 67.9154 128.202 68.1361C127.907 68.3814 127.588 68.5285 127.22 68.6512C126.853 68.7493 126.46 68.7983 125.97 68.7983C125.651 68.7983 125.356 68.7738 125.038 68.7002C124.719 68.6266 124.498 68.5531 124.351 68.4795L124.719 66.8607C125.111 67.0079 125.528 67.106 125.921 67.106C126.436 67.106 126.853 66.9833 127.147 66.7381C127.441 66.4928 127.711 66.1004 127.932 65.5853C127.294 64.3589 126.681 63.0099 126.092 61.5629C125.504 60.1158 124.989 58.5706 124.523 56.9518H126.681C126.804 57.4178 126.926 57.9329 127.098 58.4725C127.27 59.012 127.441 59.5762 127.637 60.1403C127.834 60.7044 128.03 61.2685 128.251 61.8327C128.471 62.3968 128.668 62.9118 128.888 63.3779C129.232 62.3968 129.575 61.3176 129.894 60.2139C130.213 59.0856 130.483 58.0064 130.752 56.9518H132.813V56.9272Z" fill="#2C2C2C"/>
  <path d="M139.632 58.3497C139.411 58.595 139.117 58.9138 138.749 59.3308C138.381 59.7477 137.988 60.2138 137.596 60.7534C137.179 61.2684 136.762 61.808 136.345 62.3721C135.928 62.9363 135.56 63.4759 135.217 63.9909H139.73V65.6833H132.764V64.4324C133.009 63.9909 133.328 63.5004 133.696 62.9853C134.064 62.4702 134.432 61.9307 134.824 61.4156C135.217 60.876 135.609 60.3854 135.977 59.8949C136.37 59.4044 136.713 58.9874 137.007 58.644H132.985V56.9517H139.632V58.3497Z" fill="#2C2C2C"/>
  <path d="M140 61.342C140 60.5817 140.123 59.8949 140.343 59.3308C140.564 58.7422 140.883 58.2762 141.251 57.8837C141.619 57.4913 142.06 57.2215 142.551 57.0253C143.041 56.8291 143.532 56.731 144.047 56.731C145.249 56.731 146.181 57.0989 146.868 57.8592C147.53 58.595 147.873 59.7232 147.873 61.1949C147.873 61.3175 147.873 61.4401 147.873 61.5628C147.873 61.7099 147.849 61.8326 147.849 61.9307H142.085C142.134 62.642 142.379 63.1816 142.821 63.5495C143.262 63.9419 143.9 64.1381 144.734 64.1381C145.224 64.1381 145.666 64.0891 146.083 64.0155C146.5 63.9174 146.819 63.8193 147.039 63.7212L147.309 65.3645C147.186 65.4135 147.039 65.4871 146.843 65.5362C146.647 65.6097 146.426 65.6588 146.181 65.7079C145.936 65.7569 145.666 65.806 145.371 65.8305C145.077 65.855 144.783 65.8795 144.488 65.8795C143.728 65.8795 143.041 65.7569 142.477 65.5362C141.913 65.3154 141.447 64.9966 141.079 64.5796C140.711 64.1626 140.441 63.6966 140.27 63.1325C140.098 62.5929 140 62.0043 140 61.342ZM145.862 60.4345C145.862 60.1647 145.813 59.8949 145.739 59.6497C145.666 59.4044 145.543 59.1837 145.396 58.9874C145.249 58.7912 145.053 58.6686 144.856 58.546C144.636 58.4478 144.39 58.3988 144.071 58.3988C143.753 58.3988 143.483 58.4478 143.262 58.5705C143.017 58.6931 142.821 58.8403 142.673 59.0365C142.502 59.2327 142.379 59.4535 142.306 59.6987C142.207 59.944 142.158 60.1893 142.109 60.4591H145.862V60.4345Z" fill="#2C2C2C"/>
  <path d="M154.178 58.7423C154.006 58.6932 153.785 58.6197 153.491 58.5706C153.197 58.497 152.853 58.4725 152.461 58.4725C152.24 58.4725 151.995 58.497 151.75 58.5461C151.504 58.5951 151.333 58.6197 151.235 58.6687V65.6589H149.223V57.3197C149.616 57.1726 150.106 57.0499 150.695 56.9028C151.284 56.7801 151.921 56.7065 152.633 56.7065C152.755 56.7065 152.927 56.7065 153.099 56.7311C153.27 56.7556 153.467 56.7801 153.638 56.8046C153.81 56.8292 153.982 56.8782 154.153 56.9028C154.325 56.9518 154.448 56.9763 154.546 57.0009L154.178 58.7423Z" fill="#2C2C2C"/>
  <path d="M93.8899 29.6287H102.474C104.903 29.6287 107.012 30.0701 108.753 30.9286C110.495 31.8116 111.844 33.0624 112.776 34.7303C113.708 36.3981 114.174 38.3848 114.174 40.6904C114.174 43.0204 113.708 45.0316 112.8 46.6749C111.893 48.3428 110.544 49.6182 108.802 50.5012C107.061 51.3841 104.952 51.8256 102.499 51.8256H93.9144V29.6287H93.8899ZM102.156 47.9258C106.914 47.9258 109.268 45.5222 109.268 40.7149C109.268 35.9566 106.889 33.553 102.156 33.553H98.7462V47.9258H102.156Z" fill="#2C2C2C"/>
  <path d="M130.289 44.3447H119.865C119.939 45.8163 120.332 46.8955 121.018 47.5822C121.705 48.269 122.735 48.5878 124.084 48.5878C124.894 48.5878 125.703 48.4407 126.512 48.1709C127.322 47.9011 128.082 47.5086 128.769 46.9936L130.02 50.1821C129.259 50.7953 128.327 51.2613 127.224 51.6047C126.12 51.948 124.992 52.1197 123.863 52.1197C121.19 52.1197 119.105 51.3839 117.584 49.9123C116.064 48.4407 115.303 46.4295 115.303 43.9032C115.303 42.3089 115.622 40.8618 116.285 39.6109C116.947 38.3601 117.854 37.379 119.056 36.6677C120.233 35.9809 121.582 35.613 123.079 35.613C125.31 35.613 127.076 36.3488 128.352 37.7714C129.652 39.2185 130.289 41.1807 130.289 43.6334V44.3447ZM121.043 39.7091C120.503 40.2241 120.135 40.9845 119.964 41.9901H126.243C125.997 39.9543 124.992 38.9242 123.201 38.9242C122.318 38.9242 121.582 39.194 121.043 39.7091Z" fill="#2C2C2C"/>
  <path d="M147.579 36.0304V51.8748H142.919V49.5448C142.428 50.3542 141.766 50.9919 140.883 51.4579C140 51.9239 139.019 52.1446 137.915 52.1446C136.542 52.1446 135.34 51.8012 134.285 51.139C133.231 50.4768 132.421 49.5202 131.808 48.2694C131.22 47.043 130.925 45.5959 130.925 43.9771C130.925 42.3583 131.22 40.9112 131.808 39.6358C132.397 38.3604 133.231 37.3794 134.285 36.6926C135.34 36.0058 136.567 35.6379 137.915 35.6379C139.019 35.6379 140 35.8832 140.883 36.3492C141.766 36.8398 142.428 37.4775 142.919 38.2869V36.0304H147.579ZM141.987 47.3373C142.6 46.5525 142.919 45.3997 142.919 43.9035C142.919 42.4074 142.6 41.2546 141.987 40.4452C141.374 39.6358 140.466 39.2434 139.289 39.2434C138.112 39.2434 137.229 39.6604 136.567 40.4943C135.929 41.3282 135.61 42.481 135.61 43.9526C135.61 45.4242 135.929 46.5525 136.567 47.3373C137.204 48.1222 138.112 48.5146 139.289 48.5146C140.466 48.5146 141.349 48.1222 141.987 47.3373Z" fill="#2C2C2C"/>
  <path d="M149.811 28.8682H154.52V51.85H149.811V28.8682Z" fill="#2C2C2C"/>
  <path d="M25.2627 52.4387V50.2067L22.2949 49.0049C21.5836 49.8143 20.5535 50.3293 19.3762 50.3293C19.229 50.3293 19.0819 50.3293 18.9102 50.3048C18.7876 50.2803 18.6894 50.2803 18.5913 50.2558L17.365 51.7274V65.904H25.2627V54.6461H25.2382V52.4387H25.2627Z" fill="#747474"/>
  <path d="M35.957 55.3082L36.0061 55.4308C36.0061 55.3818 35.9816 55.3327 35.9816 55.2837L35.957 55.3082Z" fill="#2C2C2C"/>
  <path d="M44.0024 54.1558L43.6345 54.3029C43.6345 54.401 43.6591 54.5237 43.6591 54.6218C43.6591 56.7556 41.9176 58.497 39.7838 58.497C38.3612 58.497 37.1103 57.7122 36.4236 56.5594L40.0045 65.9042H48.5645L44.1005 54.4256C44.076 54.3274 44.0515 54.2293 44.0024 54.1558Z" fill="#747474"/>
  <path d="M4.58154 62.3231C4.65512 62.3476 4.75323 62.3476 4.82681 62.3722L8.75114 57.6875L4.58154 62.3231Z" fill="#2C2C2C"/>
  <path d="M46.0326 0L3.87061 24.3553V61.5628H3.91966C4.1404 61.5628 4.36115 61.5874 4.58189 61.6119L12.1853 52.5124V29.1381L46.0326 9.59007L79.8799 29.1381V53.518H88.1945V24.3308L46.0326 0Z" fill="#2C2C2C"/>
  <path d="M18.836 41.9411C19.0077 41.9166 19.1794 41.9166 19.3756 41.9166C21.6811 41.9166 23.6188 43.6825 23.9131 45.939L36.8388 51.1633C37.6728 50.452 38.7029 50.0841 39.7821 50.0841C40.2481 50.0841 40.7141 50.1576 41.1311 50.2803C41.3028 50.3293 41.4745 50.4274 41.6461 50.501C44.8347 48.3917 46.944 44.7862 46.944 40.6902C46.944 34.2151 41.6707 28.9172 35.171 28.9172H25.2621H18.9341H17.3889V42.3826C17.8304 42.1618 18.3209 42.0147 18.836 41.9411ZM25.2621 35.981H25.8753H29.7505H34.9257C37.5256 35.981 39.6104 38.0903 39.6104 40.6657C39.6104 43.2656 37.5011 45.3503 34.9257 45.3503H31.0505H27.1507H25.2621V35.981Z" fill="#2C2C2C"/>
  <path d="M55.6764 42.6769C53.8859 42.6769 52.3407 43.6579 51.5313 45.1296C51.1634 45.8163 50.9426 46.5767 50.9426 47.4106C50.9426 47.6558 50.9672 47.8766 50.9917 48.0973L42.4318 51.8009C42.0148 51.4085 41.4997 51.1142 40.9601 50.9425C40.5922 50.8198 40.1998 50.7708 39.8074 50.7708C38.7037 50.7708 37.7226 51.2368 37.0113 51.9726L32.1795 50.0104L29.7758 49.0294L27.1024 47.9502L25.2874 47.2144L23.2761 46.405C23.2271 44.2956 21.5102 42.6033 19.4009 42.6033C19.2537 42.6033 19.1066 42.6033 18.9349 42.6278C18.3707 42.7014 17.8557 42.8731 17.3897 43.1674C16.2859 43.8542 15.5256 45.0805 15.5256 46.4785C15.5256 47.337 15.7954 48.0973 16.2614 48.735L12.1899 53.5914L4.85635 62.3721C4.5375 62.2985 4.21865 62.2494 3.87527 62.2494C1.74142 62.2494 0 63.9908 0 66.1247C0 68.2585 1.74142 70 3.87527 70C6.00912 70 7.75054 68.2585 7.75054 66.1247C7.75054 65.3398 7.5298 64.6285 7.11284 64.0154L17.3897 51.7273L18.616 50.2557C18.7141 50.2802 18.8368 50.3048 18.9349 50.3048C19.082 50.3293 19.2292 50.3293 19.4009 50.3293C20.5536 50.3293 21.6083 49.8142 22.3196 49.0048L25.2628 50.2067L30.7814 52.4386L35.7359 54.4498L35.9321 54.5234C35.9321 54.5479 35.9321 54.597 35.9321 54.6215C35.9321 54.8423 35.9566 55.063 35.9811 55.2837C35.9811 55.3328 36.0057 55.3819 36.0057 55.4309C36.0793 55.8233 36.2509 56.2158 36.4472 56.5591C37.1094 57.7119 38.3603 58.4968 39.8074 58.4968C41.9412 58.4968 43.6826 56.7554 43.6826 54.6215C43.6826 54.4989 43.6826 54.4008 43.6581 54.3027L44.026 54.1555L51.5558 50.8934L52.218 50.5991C53.0765 51.5311 54.3028 52.1198 55.6764 52.1198C58.2762 52.1198 60.3855 50.0104 60.3855 47.4106C60.3855 44.8107 58.2762 42.6769 55.6764 42.6769ZM4.73372 66.7624C4.5375 67.0322 4.21865 67.2284 3.85074 67.2284C3.23757 67.2284 2.74703 66.7379 2.74703 66.1247C2.74703 65.8304 2.86966 65.5606 3.06588 65.3644C3.26209 65.1681 3.53189 65.021 3.85074 65.021C4.04696 65.021 4.24318 65.0946 4.41487 65.1927C4.73372 65.3889 4.92993 65.7323 4.92993 66.1247C4.95446 66.37 4.88088 66.5662 4.73372 66.7624ZM19.3764 47.5823C19.2047 47.5823 19.0575 47.5332 18.9103 47.4841C18.5424 47.3125 18.2726 46.9446 18.2726 46.5031C18.2726 46.4295 18.2726 46.3804 18.2972 46.3069C18.3707 45.9389 18.5915 45.6446 18.9103 45.4975C18.9349 45.4729 18.9594 45.4729 18.9839 45.4729C19.1066 45.4239 19.2292 45.3994 19.3518 45.3994C19.965 45.3994 20.4555 45.8899 20.4555 46.5031C20.4801 47.0917 19.9895 47.5823 19.3764 47.5823ZM39.7828 55.7252C39.1697 55.7252 38.6791 55.2347 38.6791 54.6215C38.6791 54.4253 38.7282 54.2291 38.8263 54.0819C39.0225 53.7631 39.3659 53.5178 39.7828 53.5178C39.8564 53.5178 39.9055 53.5178 39.9791 53.5423C40.4941 53.6404 40.8866 54.0819 40.8866 54.6215C40.8866 55.2347 40.396 55.7252 39.7828 55.7252ZM55.6764 49.3482C55.5292 49.3482 55.382 49.3237 55.2349 49.2992C54.3764 49.1029 53.7387 48.3181 53.7387 47.4106C53.7387 47.2389 53.7632 47.0672 53.8123 46.8955C54.033 46.0616 54.7934 45.4729 55.6764 45.4729C56.7555 45.4729 57.614 46.3559 57.614 47.4106C57.614 48.4652 56.7555 49.3482 55.6764 49.3482Z" fill="#2C2C2C"/>
  <path d="M75.9603 50.2562V43.9282H60.7781C61.4648 44.9093 61.8573 46.1111 61.8573 47.4111C61.8573 48.4412 61.612 49.4223 61.146 50.2562H75.9603Z" fill="#2C2C2C"/>
  <path d="M59.4285 52.2921C58.3983 53.1015 57.0984 53.5675 55.6758 53.5675C54.0816 53.5675 52.61 52.9543 51.5308 51.9487V65.9046H77.0389V59.6257H59.4285V52.2921Z" fill="#747474"/>
  <path d="M51.5547 28.9175V42.8734C52.6584 41.8678 54.1055 41.2546 55.6998 41.2546C57.1223 41.2546 58.3977 41.7451 59.4524 42.53V35.1964H77.0628V28.9175H51.5547Z" fill="#2C2C2C"/>
  <path d="M84.3998 55.9951C81.2848 55.9951 78.7585 58.5214 78.7585 61.6363C78.7585 64.7513 81.2848 67.2775 84.3998 67.2775C87.5147 67.2775 90.041 64.7513 90.041 61.6363C90.041 58.4969 87.5147 55.9951 84.3998 55.9951ZM84.3998 63.6966C83.247 63.6966 82.315 62.7646 82.315 61.6118C82.315 60.459 83.247 59.527 84.3998 59.527C85.5525 59.527 86.4846 60.459 86.4846 61.6118C86.4846 62.7646 85.5525 63.6966 84.3998 63.6966Z" fill="#747474"/>
</svg>