<svg xmlns="http://www.w3.org/2000/svg" width="130" height="28" viewBox="0 0 130 28" fill="none">
  <path d="M129.398 12.6903V10.4251H126.585V6.90367L126.491 6.93283L123.849 7.74121L123.797 7.75703V10.4253H119.626V8.93882C119.626 8.24669 119.781 7.71704 120.086 7.36381C120.389 7.01481 120.822 6.83739 121.375 6.83739C121.772 6.83739 122.183 6.93096 122.597 7.11549L122.701 7.16184V4.77632L122.652 4.75838C122.266 4.61958 121.741 4.54968 121.09 4.54968C120.27 4.54968 119.524 4.72823 118.874 5.08208C118.223 5.43643 117.712 5.94229 117.353 6.58545C116.996 7.22787 116.815 7.96984 116.815 8.79093V10.4251H114.856V12.6903H116.815V22.233H119.626V12.6903H123.797V18.7545C123.797 21.252 124.975 22.5177 127.298 22.5177C127.68 22.5177 128.082 22.4729 128.492 22.3853C128.909 22.2954 129.194 22.2055 129.361 22.1096L129.398 22.0877V19.8016L129.284 19.8772C129.131 19.9789 128.941 20.062 128.719 20.1238C128.495 20.1867 128.308 20.2182 128.163 20.2182C127.619 20.2182 127.216 20.0716 126.966 19.7822C126.714 19.4901 126.586 18.9794 126.586 18.2649V12.6903H129.398ZM108.577 20.2186C107.556 20.2186 106.752 19.8802 106.185 19.2136C105.614 18.5437 105.325 17.5885 105.325 16.375C105.325 15.1229 105.614 14.1429 106.185 13.4612C106.752 12.7839 107.549 12.4401 108.554 12.4401C109.529 12.4401 110.305 12.7684 110.861 13.4164C111.42 14.0678 111.703 15.0399 111.703 16.3066C111.703 17.5888 111.437 18.5737 110.911 19.2326C110.389 19.8864 109.604 20.2186 108.577 20.2186ZM108.702 10.1407C106.755 10.1407 105.208 10.7112 104.106 11.8364C103.004 12.9618 102.445 14.5191 102.445 16.4655C102.445 18.3143 102.991 19.8013 104.066 20.8847C105.142 21.9684 106.606 22.5174 108.417 22.5174C110.305 22.5174 111.82 21.9389 112.923 20.7981C114.025 19.6586 114.583 18.1159 114.583 16.215C114.583 14.3373 114.059 12.8392 113.025 11.763C111.991 10.6864 110.536 10.1407 108.702 10.1407ZM97.9118 10.1407C96.5874 10.1407 95.4918 10.4795 94.6549 11.1474C93.8129 11.8194 93.3858 12.7006 93.3858 13.767C93.3858 14.3214 93.478 14.8138 93.6594 15.2314C93.8419 15.6504 94.1244 16.0194 94.4996 16.329C94.8721 16.6361 95.4469 16.9578 96.2087 17.2851C96.8491 17.5486 97.3267 17.7716 97.6301 17.9472C97.9266 18.1194 98.1371 18.2925 98.2559 18.4611C98.3714 18.626 98.43 18.8518 98.43 19.1304C98.43 19.9237 97.8359 20.3097 96.6135 20.3097C96.1601 20.3097 95.6429 20.215 95.0764 20.0284C94.5139 19.8445 93.983 19.5753 93.5023 19.2302L93.3855 19.1465V21.8536L93.4284 21.8735C93.8262 22.0572 94.3278 22.212 94.919 22.3339C95.5091 22.4559 96.0452 22.5179 96.511 22.5179C97.9482 22.5179 99.1055 22.1775 99.9501 21.5056C100.8 20.829 101.231 19.9269 101.231 18.8236C101.231 18.0277 100.999 17.3452 100.542 16.7947C100.088 16.2487 99.3 15.7475 98.2012 15.3044C97.3258 14.9531 96.765 14.6614 96.5336 14.4375C96.3106 14.2212 96.1974 13.9153 96.1974 13.5279C96.1974 13.1846 96.3372 12.9094 96.6241 12.6867C96.9133 12.4628 97.3159 12.3489 97.8207 12.3489C98.2892 12.3489 98.7685 12.4229 99.2452 12.5679C99.7215 12.713 100.14 12.9072 100.489 13.1448L100.604 13.2233V10.6554L100.56 10.6364C100.238 10.4983 99.8129 10.38 99.2968 10.2841C98.7831 10.1888 98.3171 10.1407 97.9118 10.1407ZM86.0557 20.2186C85.0354 20.2186 84.2305 19.8802 83.6636 19.2136C83.0929 18.5437 82.8044 17.5888 82.8044 16.375C82.8044 15.1229 83.0933 14.1429 83.6642 13.4612C84.2311 12.7839 85.0279 12.4401 86.0331 12.4401C87.0077 12.4401 87.7838 12.7684 88.3399 13.4164C88.8987 14.0678 89.1822 15.0399 89.1822 16.3066C89.1822 17.5888 88.9154 18.5737 88.3896 19.2326C87.8674 19.8864 87.0826 20.2186 86.0557 20.2186ZM86.181 10.1407C84.2335 10.1407 82.6869 10.7112 81.5848 11.8364C80.4829 12.9618 79.9239 14.5191 79.9239 16.4655C79.9239 18.315 80.4696 19.8013 81.5454 20.8847C82.6211 21.9684 84.085 22.5174 85.8962 22.5174C87.7833 22.5174 89.2994 21.9389 90.4016 20.7981C91.5034 19.6586 92.0619 18.1159 92.0619 16.215C92.0619 14.3373 91.5379 12.8392 90.5039 11.763C89.4694 10.6864 88.0148 10.1407 86.181 10.1407ZM75.6557 12.47V10.4251H72.8783V22.2327H75.6557V16.1927C75.6557 15.1656 75.8886 14.3219 76.3481 13.6846C76.8018 13.0548 77.4063 12.7358 78.1444 12.7358C78.3946 12.7358 78.6754 12.777 78.9796 12.8586C79.2806 12.9397 79.4986 13.0278 79.6272 13.1205L79.744 13.2051V10.4049L79.699 10.3856C79.4403 10.2757 79.0744 10.2203 78.6114 10.2203C77.9134 10.2203 77.2888 10.4446 76.7538 10.8861C76.2842 11.2742 75.9448 11.8064 75.6853 12.47H75.6557ZM67.9043 10.1407C66.6301 10.1407 65.4935 10.4139 64.5268 10.9525C63.558 11.4924 62.8089 12.2632 62.2991 13.2432C61.7917 14.2209 61.534 15.363 61.534 16.6366C61.534 17.7522 61.7838 18.776 62.2776 19.6784C62.7716 20.5822 63.4708 21.2893 64.3559 21.7797C65.2398 22.2695 66.2614 22.5178 67.3925 22.5178C68.7124 22.5178 69.8394 22.2539 70.7429 21.7334L70.7794 21.7125V19.1679L70.6627 19.2531C70.2534 19.5513 69.796 19.7893 69.3039 19.9607C68.813 20.132 68.3654 20.2186 67.9729 20.2186C66.8831 20.2186 66.0082 19.8776 65.3731 19.2053C64.7367 18.5321 64.414 17.5868 64.414 16.3973C64.414 15.2003 64.7505 14.2307 65.4138 13.5152C66.075 12.8019 66.9515 12.4401 68.0188 12.4401C68.9317 12.4401 69.8213 12.7492 70.663 13.3597L70.7794 13.4443V10.7632L70.7418 10.742C70.4251 10.5647 69.9931 10.4183 69.4569 10.3073C68.9229 10.1965 68.4006 10.1407 67.9043 10.1407ZM59.6211 10.4253H56.8436V22.2327H59.6211V10.4253ZM58.2608 5.39519C57.8036 5.39519 57.4049 5.55081 57.0773 5.85919C56.7484 6.16843 56.5816 6.55779 56.5816 7.0173C56.5816 7.46959 56.7464 7.85185 57.0722 8.15287C57.3959 8.45302 57.7959 8.60515 58.2609 8.60515C58.7257 8.60515 59.1272 8.45302 59.4547 8.15337C59.7844 7.85185 59.9516 7.46971 59.9516 7.0173C59.9516 6.57387 59.7889 6.18849 59.4683 5.87165C59.148 5.55542 58.7416 5.39519 58.2608 5.39519ZM51.3308 9.55408V22.2327H54.1653V5.75664H50.2422L45.2556 17.9946L40.4165 5.75664H36.3336V22.2326H38.9973V9.55283H39.0888L44.1988 22.2327H46.209L51.2393 9.55408H51.3308Z" fill="#B7BAC7"/>
  <path d="M13.6657 13.3172H0.599609V0.251099H13.6657V13.3172Z" fill="#B7BAC7"/>
  <path d="M28.0914 13.3172H15.0256V0.251099H28.0914V13.3172Z" fill="#B7BAC7"/>
  <path d="M13.6653 27.7486H0.599609V14.6827H13.6653V27.7486Z" fill="#B7BAC7"/>
  <path d="M28.0914 27.7486H15.0256V14.6827H28.0914V27.7486Z" fill="#B7BAC7"/>
</svg>