<svg xmlns="http://www.w3.org/2000/svg" width="112" height="26" viewBox="0 0 112 26" fill="none">
  <path fill-rule="evenodd" clip-rule="evenodd" d="M31.8158 1.24301C33.3557 1.65782 34.566 2.86807 34.9751 4.40238C35.7196 7.18673 35.7196 12.9999 35.7196 12.9999C35.7196 12.9999 35.7196 18.813 34.9751 21.5973C34.5603 23.1372 33.3501 24.3476 31.8158 24.7567C29.0314 25.5012 17.8598 25.5012 17.8598 25.5012C17.8598 25.5012 6.69392 25.5012 3.90385 24.7567C2.36395 24.3419 1.15356 23.1316 0.744471 21.5973C0 18.813 0 12.9998 0 12.9998C0 12.9998 0 7.18673 0.744471 4.40238C1.15929 2.86249 2.36968 1.6521 3.90385 1.24301C6.69392 0.498535 17.8598 0.498535 17.8598 0.498535C17.8598 0.498535 29.0314 0.498535 31.8158 1.24301ZM23.5718 12.9998L14.2925 18.3584V7.64139L23.5718 12.9998Z" fill="#B7BAC7"/>
  <path fill-rule="evenodd" clip-rule="evenodd" d="M51.846 23.2448C51.1413 22.7676 50.6356 22.0289 50.3401 21.0232C50.0446 20.0173 49.8911 18.682 49.8911 17.0113V14.7384C49.8911 13.0508 50.0616 11.6984 50.4025 10.6754C50.7435 9.65263 51.2777 8.90831 51.9993 8.44225C52.721 7.97633 53.67 7.73772 54.8462 7.73772C56.0055 7.73772 56.9317 7.97633 57.6305 8.4537C58.3295 8.93092 58.8409 9.67539 59.1648 10.6868C59.4888 11.6984 59.6479 13.0508 59.6479 14.7326V17.0057C59.6479 18.6763 59.4888 20.0173 59.1761 21.0288C58.8637 22.0402 58.3524 22.7847 57.642 23.2506C56.9373 23.7165 55.977 23.9554 54.7666 23.9554C53.5279 23.9608 52.5505 23.7222 51.846 23.2448ZM55.8065 20.7902C55.9997 20.2787 56.1021 19.4434 56.1021 18.2899V13.4088C56.1021 12.2835 56.0055 11.4653 55.8065 10.9426C55.6134 10.4254 55.2667 10.1641 54.7723 10.1641C54.2951 10.1641 53.9597 10.4254 53.7609 10.9426C53.5676 11.4596 53.4654 12.2835 53.4654 13.4088V18.2899C53.4654 19.4491 53.5563 20.2844 53.7439 20.7902C53.9314 21.3016 54.2723 21.5572 54.7667 21.5572C55.2667 21.5572 55.6077 21.3016 55.8065 20.7902ZM106.096 17.0511V17.8411C106.096 18.8468 106.124 19.5968 106.187 20.1025C106.243 20.6026 106.369 20.9719 106.556 21.1994C106.744 21.4266 107.033 21.5459 107.425 21.5459C107.954 21.5459 108.318 21.3414 108.511 20.9321C108.704 20.5231 108.812 19.8411 108.829 18.8865L111.869 19.0628C111.886 19.199 111.892 19.3865 111.892 19.6251C111.892 21.0743 111.494 22.1538 110.704 22.8698C109.914 23.5858 108.795 23.9438 107.346 23.9438C105.607 23.9438 104.391 23.3983 103.692 22.3073C102.993 21.2163 102.647 19.5343 102.647 17.25V14.5168C102.647 12.1643 103.01 10.4538 103.732 9.36865C104.453 8.28895 105.692 7.74902 107.448 7.74902C108.658 7.74902 109.585 7.97075 110.232 8.41391C110.88 8.85706 111.335 9.54456 111.602 10.4823C111.863 11.4198 112 12.7155 112 14.3633V17.0455H106.096V17.0511ZM106.545 10.4595C106.368 10.6812 106.249 11.0448 106.187 11.5449C106.124 12.0449 106.096 12.8121 106.096 13.8292V14.9544H108.675V13.8292C108.675 12.8233 108.641 12.062 108.573 11.5449C108.505 11.0278 108.38 10.6585 108.204 10.4482C108.028 10.2379 107.749 10.13 107.374 10.13C106.999 10.1243 106.721 10.2379 106.545 10.4595ZM43.2655 16.7556L39.2538 2.27123H42.754L44.1577 8.83445C44.5157 10.4539 44.777 11.8291 44.9475 12.9712H45.0497C45.1691 12.1528 45.4305 10.7834 45.8397 8.85706L47.2943 2.2655H50.7946L46.7375 16.7556V23.7052H43.2655V16.7556ZM71.0297 8.04461V23.6995H68.2737L67.9668 21.7845H67.8929C67.1429 23.2335 66.0178 23.9552 64.5233 23.9552C63.4835 23.9552 62.7163 23.6143 62.222 22.9324C61.7276 22.2505 61.4833 21.1879 61.4833 19.7389V8.04461H65.0064V19.54C65.0064 20.2389 65.0802 20.7391 65.2337 21.0345C65.3871 21.3299 65.6428 21.4834 66.0007 21.4834C66.3076 21.4834 66.6031 21.3923 66.8815 21.205C67.1599 21.0175 67.3702 20.7787 67.5066 20.489V8.04446L71.0297 8.04461ZM89.111 8.04461V23.6995H86.355L86.0481 21.7845H85.9743C85.2242 23.2335 84.0992 23.9552 82.6046 23.9552C81.5649 23.9552 80.7976 23.6143 80.3034 22.9324C79.809 22.2505 79.5646 21.1879 79.5646 19.7389V8.04461H83.0877V19.54C83.0877 20.2389 83.1616 20.7391 83.315 21.0345C83.4683 21.3299 83.7241 21.4834 84.0821 21.4834C84.389 21.4834 84.6845 21.3923 84.9629 21.205C85.2413 21.0175 85.4515 20.7787 85.588 20.489V8.04446L89.111 8.04461Z" fill="#B7BAC7"/>
  <path fill-rule="evenodd" clip-rule="evenodd" d="M80.6114 5.107H77.1111V23.6997H73.6619V5.107H70.1616V2.27156H80.6057V5.107H80.6114ZM100.778 10.5506C100.562 9.56193 100.221 8.84594 99.744 8.40279C99.2668 7.95948 98.6134 7.7379 97.7779 7.7379C97.1303 7.7379 96.5278 7.91969 95.9653 8.28913C95.4028 8.65271 94.9709 9.1358 94.664 9.73241H94.6357V1.48157H91.2375V23.7054H94.1468L94.5048 22.2223H94.5788C94.8515 22.7508 95.2606 23.1656 95.8061 23.4724C96.3516 23.7792 96.9541 23.9327 97.6188 23.9327C98.8122 23.9327 99.6872 23.3815 100.25 22.2847C100.812 21.1881 101.091 19.472 101.091 17.1366V14.659C101.097 12.9088 100.988 11.5394 100.778 10.5507V10.5506ZM97.545 16.9376C97.545 18.0799 97.4995 18.9719 97.403 19.6198C97.3119 20.2676 97.1529 20.7278 96.9313 21.0006C96.7096 21.2733 96.4142 21.4097 96.0392 21.4097C95.7493 21.4097 95.4823 21.3416 95.2323 21.2052C94.9879 21.0688 94.7834 20.8642 94.6299 20.5914V11.6986C94.7493 11.2723 94.9539 10.9258 95.2437 10.6531C95.5334 10.3803 95.8459 10.2438 96.1869 10.2438C96.5449 10.2438 96.8233 10.3858 97.0165 10.6642C97.2097 10.9428 97.3462 11.42 97.4256 12.0792C97.4996 12.7441 97.5392 13.6873 97.5392 14.9146V16.9376H97.545Z" fill="#B7BAC7"/>
</svg>