<svg xmlns="http://www.w3.org/2000/svg" width="113" height="38" viewBox="0 0 113 38" fill="none">
  <path d="M14.4599 0.724854H15.4558C18.9135 0.800021 22.3149 2.19063 24.7578 4.65238C23.8558 5.57319 22.935 6.45641 22.0518 7.37722C20.68 6.13695 19.0263 5.17856 17.2223 4.8403C14.5538 4.27654 11.6786 4.78392 9.4424 6.30608C6.99945 7.9034 5.34576 10.6094 4.98871 13.5034C4.59408 16.3598 5.40213 19.3665 7.26254 21.584C9.04777 23.745 11.7726 25.0981 14.5914 25.192C17.2223 25.3424 19.9659 24.5343 21.8827 22.6927C23.386 21.396 24.0813 19.4229 24.3068 17.5061C21.1874 17.5061 18.0679 17.5249 14.9484 17.5061V13.635H28.084C28.7605 17.788 27.7833 22.4672 24.6263 25.4363C22.5216 27.541 19.6088 28.7813 16.6397 29.0256C13.7646 29.3075 10.7954 28.7625 8.23972 27.3719C5.17663 25.737 2.73368 22.9746 1.53099 19.7236C0.403475 16.7356 0.384683 13.3531 1.43703 10.3464C2.39542 7.60272 4.23703 5.17856 6.60482 3.48728C8.87864 1.81479 11.6411 0.893981 14.4599 0.724854Z" fill="#B7BAC7"/>
  <path d="M89.8147 1.7019H93.8361V28.5368C92.5019 28.5368 91.1489 28.5556 89.8147 28.518C89.8335 19.5918 89.8147 10.6469 89.8147 1.7019Z" fill="#B7BAC7"/>
  <path d="M37.0295 11.0041C39.51 10.5343 42.1973 11.0605 44.2456 12.545C46.106 13.8605 47.4027 15.9276 47.7973 18.1826C48.3047 20.7947 47.6658 23.6511 45.9745 25.7182C44.1517 28.0296 41.1637 29.2699 38.251 29.082C35.5825 28.9316 32.9892 27.5974 31.4107 25.4175C29.6255 23.0122 29.1932 19.7048 30.1704 16.886C31.1476 13.8605 33.91 11.5491 37.0295 11.0041ZM37.5933 14.5746C36.5785 14.8377 35.6389 15.4202 34.9624 16.2471C33.1396 18.4269 33.2523 21.9786 35.2631 24.0081C36.4094 25.1732 38.1382 25.7182 39.7355 25.3987C41.2201 25.1357 42.5168 24.1397 43.2308 22.8242C44.4711 20.588 44.1141 17.5061 42.2161 15.7585C40.9946 14.631 39.2094 14.1612 37.5933 14.5746Z" fill="#B7BAC7"/>
  <path d="M56.9491 11.004C59.7866 10.4591 62.8873 11.2483 65.0108 13.2403C68.4685 16.3409 68.8444 22.1476 65.894 25.7181C64.1088 27.9731 61.2148 29.2134 58.3585 29.0818C55.6336 29.0067 52.9464 27.6537 51.3303 25.4174C49.5075 22.9557 49.1128 19.5731 50.1464 16.698C51.1799 13.7664 53.886 11.5302 56.9491 11.004ZM57.5128 14.5745C56.4981 14.8376 55.5585 15.4201 54.8819 16.2282C53.0779 18.3705 53.1531 21.8658 55.0887 23.9141C56.235 25.1355 58.0202 25.7369 59.6739 25.3986C61.1397 25.1168 62.4551 24.1396 63.1692 22.8241C64.3907 20.5691 64.0336 17.4872 62.1168 15.7396C60.8954 14.6121 59.1101 14.1611 57.5128 14.5745Z" fill="#B7BAC7"/>
  <path d="M73.8432 12.0937C76.0042 10.7407 78.8794 10.3648 81.2096 11.5299C81.9425 11.8494 82.5438 12.3944 83.1264 12.9393C83.1452 12.4319 83.1264 11.9058 83.1452 11.3796C84.4042 11.3984 85.6633 11.3796 86.9412 11.3984V27.9729C86.9224 30.4722 86.2834 33.1218 84.4794 34.9447C82.5063 36.9554 79.4808 37.5755 76.7559 37.1621C73.8432 36.7299 71.3063 34.6064 70.1787 31.9192C71.3063 31.3742 72.4901 30.942 73.6552 30.4346C74.313 31.9755 75.6472 33.291 77.3197 33.5916C78.9922 33.8923 80.9277 33.4789 82.0177 32.0883C83.1828 30.6601 83.1828 28.7057 83.1264 26.9581C82.262 27.8037 81.266 28.5554 80.0633 28.8373C77.4512 29.5702 74.5761 28.6682 72.5653 26.9017C70.5358 25.1353 69.3331 22.4104 69.4458 19.7044C69.5022 16.6413 71.2311 13.691 73.8432 12.0937ZM77.7331 14.499C76.5868 14.687 75.5156 15.3259 74.7828 16.2091C73.0163 18.3138 73.0163 21.6776 74.8016 23.7447C75.8163 24.9661 77.4512 25.6427 79.0297 25.4735C80.5143 25.3232 81.8861 24.3836 82.619 23.087C83.8593 20.8883 83.6526 17.9004 81.9801 15.9836C80.9465 14.7997 79.2928 14.2172 77.7331 14.499Z" fill="#B7BAC7"/>
  <path d="M98.6669 13.0523C100.922 10.9476 104.398 10.2335 107.292 11.3423C110.036 12.3758 111.784 14.9879 112.667 17.6751C108.589 19.3664 104.53 21.0389 100.452 22.7302C101.016 23.8013 101.88 24.7785 103.045 25.1731C104.68 25.7557 106.635 25.549 108.007 24.459C108.551 24.0456 108.984 23.5007 109.397 22.9745C110.431 23.6698 111.464 24.3463 112.498 25.0416C111.032 27.2402 108.57 28.7812 105.921 29.0255C102.989 29.3825 99.8696 28.255 97.9716 25.9624C94.8521 22.3543 95.1528 16.3033 98.6669 13.0523ZM100.678 16.5288C100.039 17.4496 99.7756 18.5772 99.7944 19.6859C102.519 18.5584 105.244 17.4309 107.969 16.2845C107.518 15.2322 106.428 14.5933 105.319 14.4241C103.534 14.1047 101.674 15.0631 100.678 16.5288Z" fill="#B7BAC7"/>
</svg>