<svg xmlns="http://www.w3.org/2000/svg" width="109" height="34" viewBox="0 0 109 34" fill="none">
  <path d="M23.4752 8.41719V18.8453C23.4752 19.0143 23.408 19.1764 23.2885 19.296C23.169 19.4155 23.007 19.4827 22.838 19.4827H19.547C19.3781 19.4826 19.216 19.4154 19.0966 19.2959C18.9771 19.1764 18.9099 19.0143 18.9099 18.8453V1.88347C18.9099 1.71443 18.977 1.55232 19.0965 1.43279C19.216 1.31326 19.3781 1.24611 19.547 1.24611H22.5924C22.7614 1.24611 22.9235 1.31326 23.043 1.43279C23.1625 1.55232 23.2296 1.71443 23.2296 1.88347V4.27214C23.2296 4.27214 24.3183 0.864767 27.5491 0.864767C27.5491 0.864767 30.7448 0.478364 32.0441 4.02625C32.0441 4.02625 33.1328 0.864767 36.4338 0.864767C36.4338 0.864767 41.343 0.572787 41.343 5.65392L41.3804 8.45232V18.8804C41.3804 19.0495 41.3132 19.2116 41.1937 19.3311C41.0742 19.4506 40.9122 19.5178 40.7432 19.5178H37.452C37.283 19.5177 37.121 19.4505 37.0015 19.331C36.882 19.2115 36.8149 19.0494 36.8148 18.8804L36.7847 7.50387C36.8783 4.92776 34.7948 5.1152 34.7948 5.1152C32.1728 5.16213 32.4251 8.45232 32.4251 8.45232V18.8804C32.4251 19.0495 32.358 19.2116 32.2385 19.3311C32.119 19.4506 31.9569 19.5178 31.7879 19.5178H28.497C28.328 19.5177 28.166 19.4505 28.0465 19.331C27.927 19.2115 27.8599 19.0494 27.8598 18.8804V7.76129C27.8598 7.76129 28.0522 5.0916 25.7109 5.0916C25.7112 5.0916 23.3934 4.78725 23.4752 8.41719ZM108.307 8.386V18.8138C108.307 18.9828 108.239 19.1449 108.12 19.2644C108 19.3839 107.838 19.4511 107.67 19.4512L104.247 19.5175C104.078 19.5174 103.916 19.4502 103.796 19.3307C103.677 19.2112 103.61 19.0492 103.61 18.8801V7.76129C103.61 7.76129 103.802 5.0916 101.461 5.0916C101.461 5.0916 99.225 4.98143 99.225 9.16723V18.845C99.2249 19.014 99.1577 19.1761 99.0383 19.2956C98.9188 19.4151 98.7568 19.4823 98.5878 19.4824H95.2966C95.1276 19.4823 94.9656 19.4151 94.8461 19.2956C94.7266 19.1761 94.6595 19.014 94.6594 18.845V1.88347C94.6595 1.71445 94.7266 1.55238 94.8461 1.43287C94.9656 1.31336 95.1276 1.24619 95.2966 1.24611H98.342C98.511 1.24611 98.673 1.31326 98.7925 1.43279C98.912 1.55232 98.9792 1.71443 98.9792 1.88347V4.27214C98.9792 4.27214 100.068 0.864767 103.299 0.864767C103.299 0.864767 106.76 0.33954 107.925 3.96021C107.925 3.95993 108.307 4.70688 108.307 8.386ZM84.5447 0.794512C80.3362 0.794512 76.9242 4.34239 76.9242 10.3141C76.9242 15.5717 79.558 19.8336 84.5447 19.8336C89.2505 19.8336 92.1652 15.5717 92.1652 10.3141C92.1652 4.44778 88.7535 0.794512 84.5447 0.794512ZM87.201 10.5248C87.201 12.773 86.9201 13.9673 86.9201 13.9673C86.5203 16.3439 84.7956 16.3473 84.5413 16.3347C84.2668 16.3456 82.5275 16.3209 82.1676 13.9673C82.1676 13.9673 81.8867 12.773 81.8867 10.5248V10.1502C81.8867 7.90208 82.1676 6.70774 82.1676 6.70774C82.5275 4.3542 84.2671 4.32947 84.5413 4.34015C84.7956 4.3275 86.5203 4.33059 86.9201 6.70774C86.9201 6.70774 87.201 7.90208 87.201 10.1502V10.5248ZM75.0141 4.24853V1.8149C75.014 1.64588 74.9468 1.48381 74.8273 1.3643C74.7079 1.24479 74.5458 1.17762 74.3769 1.17754H63.4988C63.3298 1.17754 63.1678 1.24469 63.0483 1.36422C62.9288 1.48375 62.8617 1.64586 62.8617 1.8149V4.22971C62.8617 4.39872 62.9289 4.56079 63.0484 4.6803C63.1679 4.79981 63.3299 4.86699 63.4988 4.86706H69.173L62.4568 14.6128C62.4568 14.6128 62.1922 15.008 62.2009 15.4444V18.4089C62.2009 18.4089 62.1571 19.4253 63.3095 18.8355C63.3095 18.8355 65.3564 17.5984 68.7887 17.5984C68.7887 17.5984 72.1782 17.5563 74.4381 18.942C74.4381 18.942 75.3762 19.3686 75.3762 18.4305V15.8502C75.3762 15.8502 75.4613 15.1673 74.566 14.741C74.566 14.741 71.965 13.3123 68.5541 13.5467L75.0141 4.24853ZM16.3699 16.4493L15.3397 14.8807C15.0118 14.295 15.0354 13.6391 15.0354 13.6391V6.40312C15.1759 0.150413 8.24591 0.689129 8.24591 0.689129C2.08544 0.689129 1.17547 5.48474 1.17547 5.48474C0.918691 6.44892 1.66543 6.47225 1.66543 6.47225L4.67571 6.77772C4.67571 6.77772 5.18899 6.89518 5.37582 6.28396C5.37582 6.28396 5.77223 4.19177 7.98913 4.19177C10.4013 4.19177 10.3763 6.26261 10.3763 6.26261V7.99622C5.56096 8.15725 3.32945 9.49434 3.32945 9.49434C0.356247 11.1805 0.543354 14.5294 0.543354 14.5294C0.543354 19.9857 5.74076 19.7513 5.74076 19.7513C9.06514 19.7513 11.0317 17.316 11.0317 17.316C11.6169 18.3468 12.694 19.3298 12.694 19.3298C13.2329 19.9143 13.7945 19.4236 13.7945 19.4236L16.2294 17.3396C16.7677 16.9411 16.3699 16.4493 16.3699 16.4493ZM7.36319 16.3819C5.79948 16.3819 5.21821 14.8275 5.4778 13.2999C5.73767 11.7723 7.08731 10.5718 10.3766 10.6069V11.5357C10.4932 15.593 8.66479 16.3819 7.36319 16.3819ZM60.1028 16.4493L59.0729 14.8807C58.745 14.295 58.7684 13.6391 58.7684 13.6391V6.40312C58.9088 0.150413 51.9789 0.689129 51.9789 0.689129C45.8184 0.689129 44.9084 5.48474 44.9084 5.48474C44.6516 6.44892 45.3984 6.47225 45.3984 6.47225L48.4087 6.77772C48.4087 6.77772 48.9219 6.89518 49.1088 6.28396C49.1088 6.28396 49.5052 4.19177 51.7221 4.19177C54.1342 4.19177 54.1092 6.26261 54.1092 6.26261V7.99622C49.2942 8.15725 47.0624 9.49434 47.0624 9.49434C44.0892 11.1805 44.2763 14.5294 44.2763 14.5294C44.2763 19.9857 49.4737 19.7513 49.4737 19.7513C52.7981 19.7513 54.7647 17.316 54.7647 17.316C55.3502 18.3468 56.4267 19.3298 56.4267 19.3298C56.9656 19.9143 57.5274 19.4236 57.5274 19.4236L59.9621 17.3396C60.5006 16.9411 60.1028 16.4493 60.1028 16.4493ZM51.0961 16.3819C49.5324 16.3819 48.9512 14.8275 49.2108 13.2999C49.4706 11.7723 50.8203 10.5718 54.1092 10.6069V11.5357C54.2261 15.593 52.398 16.3819 51.0961 16.3819Z" fill="#B7BAC7"/>
  <path d="M68.3912 30.1458C68.3912 30.1458 68.1159 30.6249 68.4542 30.732C68.4542 30.732 68.8363 30.8812 69.3127 30.4389C69.3127 30.4389 72.7877 27.4025 72.8714 21.8742C72.8714 21.8742 72.897 21.1837 72.62 20.9949C72.62 20.9949 71.5313 20.0316 67.6167 20.3247C67.6167 20.3247 64.2044 20.5551 62.3415 22.2095C62.3415 22.2095 62.174 22.3559 62.174 22.5442C62.174 22.5442 62.1339 22.9508 63.1579 22.7746C63.1579 22.7746 66.5699 22.2927 68.6005 22.5442C68.6005 22.5442 69.6476 22.6698 69.9406 23.0261C69.9406 23.0261 70.4222 23.424 70.1707 24.7429C70.1707 24.7434 69.4796 28.0938 68.3912 30.1458Z" fill="#B7BAC7"/>
  <path d="M67.7037 24.8437C67.7037 24.8437 68.2133 25.5041 67.391 26.0737C67.391 26.0737 58.6068 33.102 43.8574 33.102C43.8574 33.102 28.6748 33.8512 15.9974 22.3294C15.9974 22.3294 15.5529 21.939 15.8288 21.5762C15.8288 21.5762 16.0755 21.2424 16.714 21.6055C16.714 21.6055 28.6397 29.0387 44.3021 29.0387C44.3021 29.0387 55.1886 29.4603 66.356 24.6829C66.356 24.6829 67.2457 24.2218 67.7037 24.8437Z" fill="#B7BAC7"/>
</svg>