<svg xmlns="http://www.w3.org/2000/svg" width="49" height="52" viewBox="0 0 49 52" fill="none">
  <path d="M1 51H47.5196" stroke="gray" stroke-width="2" stroke-linecap="round" stroke-linejoin="round"/>
  <path d="M30.5763 6.9137H4.75128V50.9929H30.5763V6.9137Z" stroke="gray" stroke-width="2" stroke-linecap="round" stroke-linejoin="round"/>
  <path d="M28.7668 3.36414H6.56769V6.91377H28.7668V3.36414Z" stroke="gray" stroke-width="2" stroke-linecap="round" stroke-linejoin="round"/>
  <path d="M8.32874 11.6005H26.999" stroke="gray" stroke-width="2" stroke-linecap="round" stroke-linejoin="round"/>
  <path d="M8.32874 16.2662H26.999" stroke="gray" stroke-width="2" stroke-linecap="round" stroke-linejoin="round"/>
  <path d="M8.32874 20.939H26.999" stroke="gray" stroke-width="2" stroke-linecap="round" stroke-linejoin="round"/>
  <path d="M8.32874 25.6047H26.999" stroke="gray" stroke-width="2" stroke-linecap="round" stroke-linejoin="round"/>
  <path d="M8.32874 30.2775H26.999" stroke="gray" stroke-width="2" stroke-linecap="round" stroke-linejoin="round"/>
  <path d="M8.32874 34.9434H26.999" stroke="gray" stroke-width="2" stroke-linecap="round" stroke-linejoin="round"/>
  <path d="M8.32874 39.6162H26.999" stroke="gray" stroke-width="2" stroke-linecap="round" stroke-linejoin="round"/>
  <path d="M30.5752 8.93823H43.7685V51" stroke="gray" stroke-width="2" stroke-linecap="round" stroke-linejoin="round"/>
  <path d="M24.4272 43.4708H10.8942V50.9999H24.4272V43.4708Z" stroke="gray" stroke-width="2" stroke-linecap="round" stroke-linejoin="round"/>
  <path d="M17.6667 43.4708V50.9999" stroke="gray" stroke-width="2" stroke-linecap="round" stroke-linejoin="round"/>
  <path d="M33.5716 8.93815V1" stroke="gray" stroke-width="2" stroke-linecap="round" stroke-linejoin="round"/>
  <path d="M36.7812 8.93818V4.37634" stroke="gray" stroke-width="2" stroke-linecap="round" stroke-linejoin="round"/>
  <path d="M33.6341 13.5902V15.6978" stroke="gray" stroke-width="2" stroke-linecap="round" stroke-linejoin="round"/>
  <path d="M37.127 13.5902V15.6978" stroke="gray" stroke-width="2" stroke-linecap="round" stroke-linejoin="round"/>
  <path d="M40.623 13.5902V15.6978" stroke="gray" stroke-width="2" stroke-linecap="round" stroke-linejoin="round"/>
  <path d="M33.6341 19.0741V21.1817" stroke="gray" stroke-width="2" stroke-linecap="round" stroke-linejoin="round"/>
  <path d="M37.127 19.0741V21.1817" stroke="gray" stroke-width="2" stroke-linecap="round" stroke-linejoin="round"/>
  <path d="M40.623 19.0741V21.1817" stroke="gray" stroke-width="2" stroke-linecap="round" stroke-linejoin="round"/>
  <path d="M33.6341 24.551V26.6586" stroke="gray" stroke-width="2" stroke-linecap="round" stroke-linejoin="round"/>
  <path d="M37.127 24.551V26.6586" stroke="gray" stroke-width="2" stroke-linecap="round" stroke-linejoin="round"/>
  <path d="M40.623 24.551V26.6586" stroke="gray" stroke-width="2" stroke-linecap="round" stroke-linejoin="round"/>
  <path d="M33.6341 30.0349V32.1425" stroke="gray" stroke-width="2" stroke-linecap="round" stroke-linejoin="round"/>
  <path d="M37.127 30.0349V32.1425" stroke="gray" stroke-width="2" stroke-linecap="round" stroke-linejoin="round"/>
  <path d="M40.623 30.0349V32.1425" stroke="gray" stroke-width="2" stroke-linecap="round" stroke-linejoin="round"/>
  <path d="M33.6341 35.5189V37.6265" stroke="gray" stroke-width="2" stroke-linecap="round" stroke-linejoin="round"/>
  <path d="M37.127 35.5189V37.6265" stroke="gray" stroke-width="2" stroke-linecap="round" stroke-linejoin="round"/>
  <path d="M40.623 35.5189V37.6265" stroke="gray" stroke-width="2" stroke-linecap="round" stroke-linejoin="round"/>
  <path d="M33.6341 40.9958V43.1034" stroke="gray" stroke-width="2" stroke-linecap="round" stroke-linejoin="round"/>
  <path d="M37.127 40.9958V43.1034" stroke="gray" stroke-width="2" stroke-linecap="round" stroke-linejoin="round"/>
  <path d="M40.623 40.9958V43.1034" stroke="gray" stroke-width="2" stroke-linecap="round" stroke-linejoin="round"/>
  <path d="M33.6341 46.4797V48.5873" stroke="gray" stroke-width="2" stroke-linecap="round" stroke-linejoin="round"/>
  <path d="M37.127 46.4797V48.5873" stroke="gray" stroke-width="2" stroke-linecap="round" stroke-linejoin="round"/>
  <path d="M40.623 46.4797V48.5873" stroke="gray" stroke-width="2" stroke-linecap="round" stroke-linejoin="round"/>
</svg>