<svg xmlns="http://www.w3.org/2000/svg" width="155" height="60" viewBox="0 0 155 60" fill="none">
  <circle opacity="0.2" cx="125" cy="30" r="29" stroke="black" stroke-width="2"/>
  <path opacity="0.5" d="M121.013 19.4549C120.769 19.2217 120.442 19.0908 120.09 19.0908C119.739 19.0908 119.417 19.2217 119.173 19.4549L118.393 20.2002C117.887 20.6838 117.887 21.4745 118.393 21.9581L127.29 30.4633L118.381 38.9742C118.137 39.2074 118 39.5203 118 39.856C118 40.1916 118.137 40.5045 118.381 40.7378L119.161 41.4831C119.405 41.7163 119.733 41.8472 120.084 41.8472C120.436 41.8472 120.763 41.7163 121.007 41.4831L131.619 31.3508C131.863 31.1175 132 30.799 132 30.469C132 30.1333 131.863 29.8204 131.619 29.5872L121.013 19.4549Z" fill="black"/>
</svg>