<svg xmlns="http://www.w3.org/2000/svg" width="74" height="55" viewBox="0 0 74 55" fill="none">
  <path d="M70.6675 9.80322H3.20605V46.6836H70.6675V9.80322Z" stroke="#FEC195" stroke-width="2" stroke-linecap="round" stroke-linejoin="round"/>
  <path d="M49.4697 1.00024H24.4072V9.80307H49.4697V1.00024Z" stroke="#FEC195" stroke-width="2" stroke-linecap="round" stroke-linejoin="round"/>
  <path d="M3.20605 26.7537H70.6675" stroke="#FEC195" stroke-width="2" stroke-linecap="round" stroke-linejoin="round"/>
  <path d="M22.8644 1.00024H51.0227" stroke="#FEC195" stroke-width="2" stroke-linecap="round" stroke-linejoin="round"/>
  <path d="M24.4072 2.94751H49.4787" stroke="#FEC195" stroke-linecap="round" stroke-linejoin="round"/>
  <path d="M16.7061 26.7537H15.1537V46.6924H16.7061V26.7537Z" stroke="#FEC195" stroke-width="0.75" stroke-linecap="round" stroke-linejoin="round"/>
  <path d="M30.7105 26.7537H29.1581V46.6924H30.7105V26.7537Z" stroke="#FEC195" stroke-width="0.75" stroke-linecap="round" stroke-linejoin="round"/>
  <path d="M44.7188 26.7537H43.1664V46.6924H44.7188V26.7537Z" stroke="#FEC195" stroke-width="0.75" stroke-linecap="round" stroke-linejoin="round"/>
  <path d="M58.7309 26.7537H57.1785V46.6924H58.7309V26.7537Z" stroke="#FEC195" stroke-width="0.75" stroke-linecap="round" stroke-linejoin="round"/>
  <path d="M6.30133 23.344H12.8339" stroke="#FEC195" stroke-width="2" stroke-linejoin="round"/>
  <path d="M19.9915 23.344H26.524" stroke="#FEC195" stroke-width="2" stroke-linejoin="round"/>
  <path d="M33.672 23.344H40.2045" stroke="#FEC195" stroke-width="2" stroke-linejoin="round"/>
  <path d="M47.3525 23.344H53.8851" stroke="#FEC195" stroke-width="2" stroke-linejoin="round"/>
  <path d="M61.0426 23.344H67.5752" stroke="#FEC195" stroke-width="2" stroke-linejoin="round"/>
  <path d="M1.41406 46.6924H72.4648" stroke="#FEC195" stroke-width="2" stroke-linecap="round" stroke-linejoin="round"/>
  <path d="M6.47729 50.0483L1.65862 53.4403" stroke="#FEC195" stroke-width="2" stroke-linecap="round" stroke-linejoin="round"/>
  <path d="M16.6044 50.0483L13.3919 53.4403" stroke="#FEC195" stroke-width="2" stroke-linecap="round" stroke-linejoin="round"/>
  <path d="M26.7314 50.0483L25.1252 53.4403" stroke="#FEC195" stroke-width="2" stroke-linecap="round" stroke-linejoin="round"/>
  <path d="M36.8585 50.0483V53.4403" stroke="#FEC195" stroke-width="2" stroke-linecap="round" stroke-linejoin="round"/>
  <path d="M46.9876 50.0483L48.5938 53.4403" stroke="#FEC195" stroke-width="2" stroke-linecap="round" stroke-linejoin="round"/>
  <path d="M57.1186 50.0483L60.331 53.4403" stroke="#FEC195" stroke-width="2" stroke-linecap="round" stroke-linejoin="round"/>
  <path d="M67.2477 50.0483L72.0664 53.4403" stroke="#FEC195" stroke-width="2" stroke-linecap="round" stroke-linejoin="round"/>
</svg>