<svg xmlns="http://www.w3.org/2000/svg" width="70" height="68" viewBox="0 0 70 68" fill="none">
  <path d="M32.9588 36.5844V46.0919L23.5279 51.022L23.7273 40.8857" stroke="#FFD218" stroke-width="2" stroke-linecap="round" stroke-linejoin="round"/>
  <path d="M22.8295 41.6908L28.5187 36.5844H33.5484" stroke="#FFD218" stroke-width="2" stroke-linecap="round" stroke-linejoin="round"/>
  <path d="M24.1348 51.3824C24.0044 51.6047 23.7667 51.7274 23.5291 51.7274C23.4064 51.7274 23.2837 51.6968 23.1687 51.6277L5.97845 41.1158C5.78677 41.0008 5.67176 40.8168 5.64876 40.6097L14.1212 45.6855L15.2483 44.9801L23.8894 50.4163C24.2268 50.6157 24.3341 51.0527 24.1348 51.3824Z" fill="#FFD218"/>
  <path d="M7.04429 37.3818L5.6335 38.1102V31.4165C5.6335 31.1635 5.76384 30.9412 5.97853 30.8108C6.19322 30.6805 6.44624 30.6805 6.67626 30.7955L24.0582 40.2647C24.4032 40.4564 24.5259 40.8857 24.3419 41.2231C24.1502 41.5681 23.7285 41.6908 23.3835 41.5068L22.0033 40.7554L11.5144 35.0432L7.03663 32.605V37.3894L7.04429 37.3818Z" fill="#FFD218"/>
  <path d="M6.33636 31.4166L9.65633 27.4066L13.306 26.9082L32.9575 36.5844" stroke="#FFD218" stroke-width="2" stroke-linecap="round" stroke-linejoin="round"/>
  <path d="M9.65736 27.4066L28.5191 36.5845" stroke="#FFD218" stroke-linecap="round" stroke-linejoin="round"/>
  <path d="M26.5862 43.9835L30.0978 42.1817V38.9154L26.5862 40.7172V43.9835Z" stroke="#FFD218" stroke-width="0.75" stroke-linecap="round" stroke-linejoin="round"/>
  <path d="M26.5862 42.2583L30.0978 40.4564" stroke="#FFD218" stroke-width="0.75" stroke-linecap="round" stroke-linejoin="round"/>
  <path d="M12.5089 34.5219L11.5198 35.0432L7.0421 37.3818L5.6313 38.1178L3.41544 39.2756L5.64664 40.6097L14.1191 45.6855L15.2462 44.9801L22.0088 40.7554L22.9059 40.188" stroke="#FFD218" stroke-width="0.75" stroke-linecap="round" stroke-linejoin="round"/>
  <path d="M14.1193 45.678V50.4931" stroke="#FFD218" stroke-width="0.75" stroke-linecap="round" stroke-linejoin="round"/>
  <path d="M3.42222 39.2756V43.9067" stroke="#FFD218" stroke-width="0.75" stroke-linecap="round" stroke-linejoin="round"/>
  <path d="M7.05006 41.5912V46.3066" stroke="#FFD218" stroke-width="0.75" stroke-linecap="round" stroke-linejoin="round"/>
  <path d="M10.2778 43.3777V48.3538" stroke="#FFD218" stroke-width="0.75" stroke-linecap="round" stroke-linejoin="round"/>
  <path d="M64.2928 18.4283V27.9282L55.0536 32.6666V22.7221" stroke="#FFD218" stroke-width="2" stroke-linecap="round" stroke-linejoin="round"/>
  <path d="M54.1569 23.5271L59.8537 18.4283H64.8758" stroke="#FFD218" stroke-width="2" stroke-linecap="round" stroke-linejoin="round"/>
  <path d="M55.6496 33.0193C55.5193 33.2417 55.2816 33.3643 55.0439 33.3643C54.9212 33.3643 54.7985 33.3337 54.6835 33.2647L45.222 27.6521L46.5638 26.8164L55.3966 32.0609C55.734 32.2602 55.8413 32.6973 55.6419 33.027L55.6496 33.0193Z" fill="#FFD218"/>
  <path d="M38.3684 19.2181L36.9576 19.9465V13.2529C36.9576 12.9998 37.088 12.7775 37.3027 12.6471C37.5174 12.5168 37.7704 12.5168 38.0004 12.6318L55.3823 22.101C55.7274 22.2927 55.85 22.722 55.666 23.0594C55.4743 23.4044 55.0526 23.5271 54.7076 23.3431L53.3275 22.5917L42.8385 16.8795L38.3608 14.4413V19.2257L38.3684 19.2181Z" fill="#FFD218"/>
  <path d="M37.6637 13.2528L40.9837 9.24276L44.6334 8.74438L64.2925 18.4283" stroke="#FFD218" stroke-width="2" stroke-linecap="round" stroke-linejoin="round"/>
  <path d="M40.983 9.2428L59.8524 18.4283" stroke="#FFD218" stroke-linecap="round" stroke-linejoin="round"/>
  <path d="M57.9135 25.8197L61.4252 24.0179V20.7516L57.9135 22.5534V25.8197Z" stroke="#FFD218" stroke-width="0.75" stroke-linecap="round" stroke-linejoin="round"/>
  <path d="M57.9135 24.0946L61.4252 22.3004" stroke="#FFD218" stroke-width="0.75" stroke-linecap="round" stroke-linejoin="round"/>
  <path d="M43.8354 16.358L42.8463 16.8794L38.3686 19.218L36.9655 19.954L34.7496 21.1118L36.9808 22.4459L45.4456 27.5217L46.5727 26.8163L53.3353 22.5916L54.2324 22.0242" stroke="#FFD218" stroke-linecap="round" stroke-linejoin="round"/>
  <path d="M45.4534 27.5217V32.3368" stroke="#FFD218" stroke-linecap="round" stroke-linejoin="round"/>
  <path d="M34.7496 21.1119V25.743" stroke="#FFD218" stroke-linecap="round" stroke-linejoin="round"/>
  <path d="M38.3774 23.4274V28.1428" stroke="#FFD218" stroke-linecap="round" stroke-linejoin="round"/>
  <path d="M41.6035 25.2139V30.1977" stroke="#FFD218" stroke-linecap="round" stroke-linejoin="round"/>
  <path d="M30.0444 10.8145V20.322L20.8053 25.0528V15.1158" stroke="#FFD218" stroke-width="2" stroke-linecap="round" stroke-linejoin="round"/>
  <path d="M19.9085 15.9133L25.6053 10.8145H30.6275" stroke="#FFD218" stroke-width="2" stroke-linecap="round" stroke-linejoin="round"/>
  <path d="M21.4122 25.413C21.2818 25.6354 21.0441 25.7581 20.8064 25.7581C20.6838 25.7581 20.5611 25.7274 20.4461 25.6584L3.06416 15.3458C2.87248 15.2308 2.75746 15.0467 2.73446 14.8397L11.2069 19.9155L12.334 19.2101L21.1668 24.4546C21.5042 24.654 21.6115 25.091 21.4122 25.4207V25.413Z" fill="#FFD218"/>
  <path d="M4.13 11.6041L2.7192 12.3324V5.63884C2.7192 5.38581 2.84955 5.16346 3.06424 5.03312C3.27892 4.90277 3.53194 4.90277 3.76197 5.01778L21.1439 14.487C21.4889 14.6787 21.6116 15.108 21.4276 15.4454C21.2359 15.7904 20.8142 15.9131 20.4692 15.7291L19.089 14.9777L8.60007 9.2655L4.12233 6.82728V11.6117L4.13 11.6041Z" fill="#FFD218"/>
  <path d="M3.41536 5.63891L6.73533 1.62887L10.385 1.13049L30.0441 10.8144" stroke="#FFD218" stroke-width="2" stroke-linecap="round" stroke-linejoin="round"/>
  <path d="M6.73466 1.62891L25.6041 10.8144" stroke="#FFD218" stroke-linecap="round" stroke-linejoin="round"/>
  <path d="M23.6652 18.2058L27.1845 16.404V13.1377L23.6652 14.9395V18.2058Z" stroke="#FFD218" stroke-width="0.75" stroke-linecap="round" stroke-linejoin="round"/>
  <path d="M23.6652 16.4807L27.1845 14.6865" stroke="#FFD218" stroke-width="0.75" stroke-linecap="round" stroke-linejoin="round"/>
  <path d="M9.58705 8.74414L8.59796 9.26552L4.12789 11.6041L2.71709 12.3401L0.501221 13.4979L2.73242 14.8397L11.2049 19.9078L12.3243 19.2024L19.0869 14.9777L19.9917 14.4103" stroke="#FFD218" stroke-width="0.75" stroke-linecap="round" stroke-linejoin="round"/>
  <path d="M11.205 19.9078V24.7229" stroke="#FFD218" stroke-width="0.75" stroke-linecap="round" stroke-linejoin="round"/>
  <path d="M0.501221 13.498V18.1291" stroke="#FFD218" stroke-width="0.75" stroke-linecap="round" stroke-linejoin="round"/>
  <path d="M4.12906 15.8135V20.5289" stroke="#FFD218" stroke-width="0.75" stroke-linecap="round" stroke-linejoin="round"/>
  <path d="M7.35513 17.6V22.5838" stroke="#FFD218" stroke-width="0.75" stroke-linecap="round" stroke-linejoin="round"/>
  <path d="M68.7414 30.0902L14.4871 61.7488" stroke="#FFD218" stroke-width="2" stroke-linecap="round" stroke-linejoin="round"/>
  <path d="M68.7403 44.5354L30.4648 66.8704" stroke="#FFD218" stroke-width="2" stroke-linecap="round" stroke-linejoin="round"/>
  <path d="M68.7418 37.2207L17.9301 66.8704" stroke="#FFD218" stroke-linecap="round" stroke-linejoin="round"/>
</svg>