<svg xmlns="http://www.w3.org/2000/svg" width="36" height="36" viewBox="0 0 36 36" fill="none">
  <rect x="0.00012207" width="36" height="36" rx="18" fill="#5663DA"/>
  <path d="M16.9851 8.59525C16.9848 8.59549 16.9845 8.59569 16.9843 8.59597L12.8327 12.7677C12.5217 13.0802 12.5228 13.5857 12.8354 13.8968C13.1479 14.2079 13.6534 14.2067 13.9645 13.8941L16.7518 11.0932L16.7518 28.0014C16.7518 28.4424 17.1092 28.7998 17.5502 28.7998C17.9911 28.7998 18.3486 28.4424 18.3486 28.0014L18.3486 11.0933L21.1359 13.8941C21.447 14.2066 21.9525 14.2078 22.265 13.8968C22.5776 13.5857 22.5787 13.0802 22.2677 12.7677L18.1161 8.59593C18.1158 8.59569 18.1156 8.59549 18.1153 8.59521C17.8032 8.28252 17.2961 8.28352 16.9851 8.59525Z" fill="white"/>
</svg>