<svg xmlns="http://www.w3.org/2000/svg" width="61" height="63" viewBox="0 0 61 63" fill="none">
  <path d="M1.01132 49.7799H59.9644" stroke="#01B574" stroke-width="2" stroke-linecap="round" stroke-linejoin="round"/>
  <path d="M41.7679 22.1935V49.7799H5.94247V22.1935" stroke="#01B574" stroke-width="2" stroke-linecap="round" stroke-linejoin="round"/>
  <path d="M32.9538 15.3205L31.6222 14.2981" stroke="#01B574" stroke-width="2" stroke-linecap="round" stroke-linejoin="round"/>
  <path d="M43.1868 23.2072L36.9582 18.4047" stroke="#01B574" stroke-width="2" stroke-linecap="round" stroke-linejoin="round"/>
  <path d="M3.12515 24.2897L23.8558 8.30139L27.5328 11.1365" stroke="#01B574" stroke-width="2" stroke-linecap="round" stroke-linejoin="round"/>
  <path d="M22.4978 30.5441H10.7365V49.7884H22.4978V30.5441Z" stroke="#01B574" stroke-width="2" stroke-linecap="round" stroke-linejoin="round"/>
  <path d="M36.399 30.5441H28.1857V40.3982H36.399V30.5441Z" stroke="#01B574" stroke-width="2" stroke-linecap="round" stroke-linejoin="round"/>
  <path d="M19.8009 39.3243V40.9996" stroke="#01B574" stroke-width="2" stroke-linecap="round" stroke-linejoin="round"/>
  <path d="M8.37421 54.5739C4.68857 58.2165 1.00293 54.5739 1.00293 54.5739" stroke="#01B574" stroke-width="2" stroke-linecap="round" stroke-linejoin="round"/>
  <path d="M15.7455 54.5739C12.0599 58.2165 8.37427 54.5739 8.37427 54.5739" stroke="#01B574" stroke-width="2" stroke-linecap="round" stroke-linejoin="round"/>
  <path d="M23.1169 54.5739C19.4312 58.2165 15.7456 54.5739 15.7456 54.5739" stroke="#01B574" stroke-width="2" stroke-linecap="round" stroke-linejoin="round"/>
  <path d="M30.4883 54.5739C26.8026 58.2165 23.117 54.5739 23.117 54.5739" stroke="#01B574" stroke-width="2" stroke-linecap="round" stroke-linejoin="round"/>
  <path d="M37.8596 54.5739C34.174 58.2165 30.4883 54.5739 30.4883 54.5739" stroke="#01B574" stroke-width="2" stroke-linecap="round" stroke-linejoin="round"/>
  <path d="M45.2309 54.5739C41.5453 58.2165 37.8596 54.5739 37.8596 54.5739" stroke="#01B574" stroke-width="2" stroke-linecap="round" stroke-linejoin="round"/>
  <path d="M52.6023 54.5739C48.9167 58.2165 45.231 54.5739 45.231 54.5739" stroke="#01B574" stroke-width="2" stroke-linecap="round" stroke-linejoin="round"/>
  <path d="M59.9652 54.5739C56.2796 58.2165 52.594 54.5739 52.594 54.5739" stroke="#01B574" stroke-width="2" stroke-linecap="round" stroke-linejoin="round"/>
  <path d="M8.37421 60.3815C4.68857 64.0242 1.00293 60.3815 1.00293 60.3815" stroke="#01B574" stroke-width="2" stroke-linecap="round" stroke-linejoin="round"/>
  <path d="M15.7455 60.3815C12.0599 64.0242 8.37427 60.3815 8.37427 60.3815" stroke="#01B574" stroke-width="2" stroke-linecap="round" stroke-linejoin="round"/>
  <path d="M23.1169 60.3815C19.4312 64.0242 15.7456 60.3815 15.7456 60.3815" stroke="#01B574" stroke-width="2" stroke-linecap="round" stroke-linejoin="round"/>
  <path d="M30.4883 60.3815C26.8026 64.0242 23.117 60.3815 23.117 60.3815" stroke="#01B574" stroke-width="2" stroke-linecap="round" stroke-linejoin="round"/>
  <path d="M37.8596 60.3815C34.174 64.0242 30.4883 60.3815 30.4883 60.3815" stroke="#01B574" stroke-width="2" stroke-linecap="round" stroke-linejoin="round"/>
  <path d="M45.2309 60.3815C41.5453 64.0242 37.8596 60.3815 37.8596 60.3815" stroke="#01B574" stroke-width="2" stroke-linecap="round" stroke-linejoin="round"/>
  <path d="M52.6023 60.3815C48.9167 64.0242 45.231 60.3815 45.231 60.3815" stroke="#01B574" stroke-width="2" stroke-linecap="round" stroke-linejoin="round"/>
  <path d="M59.9652 60.3815C56.2796 64.0242 52.594 60.3815 52.594 60.3815" stroke="#01B574" stroke-width="2" stroke-linecap="round" stroke-linejoin="round"/>
  <path d="M37.664 13.0696C48.2914 27.0132 47.9048 49.78 47.9048 49.78H53.4719C53.4719 49.78 51.9255 23.5939 39.6572 10.7758" stroke="#01B574" stroke-width="2" stroke-linecap="round" stroke-linejoin="round"/>
  <path d="M38.041 11.4201C38.041 11.4201 45.5154 6.63474 52.2767 16.1366C52.2767 16.1366 53.1616 4.62439 40.6184 7.02135C40.6184 7.02135 38.1785 7.69146 37.4224 9.908" stroke="#01B574" stroke-width="2" stroke-linecap="round" stroke-linejoin="round"/>
  <path d="M41.5462 6.87532C41.5462 6.87532 45.4466 2.6742 52.2852 4.97665C52.2852 4.97665 46.237 -2.14548 40.0599 2.6742C36.6406 5.33749 37.4911 10.7843 37.4911 10.7843" stroke="#01B574" stroke-width="2" stroke-linecap="round" stroke-linejoin="round"/>
  <path d="M37.4057 9.10901C37.4057 9.10901 31.1255 5.21718 27.8523 10.5695C24.8539 15.4837 26.9846 20.3721 26.9846 20.3721C26.9846 20.3721 32.2682 10.6984 38.0415 11.42" stroke="#01B574" stroke-width="2" stroke-linecap="round" stroke-linejoin="round"/>
  <path d="M33.7982 12.5627C33.7982 12.5627 29.219 22.3825 38.5148 28.2245C38.5148 28.2245 35.2587 22.4856 38.0422 11.4115" stroke="#01B574" stroke-width="2" stroke-linecap="round" stroke-linejoin="round"/>
</svg>